<svg xmlns="http://www.w3.org/2000/svg"
  xmlns:xlink="http://www.w3.org/1999/xlink"
  width="2770.796"
  height="4736.711"
  viewBox="0 0 2770.796 4736.711">
  <defs>
    <radialGradient xlink:href="#a"
      id="b"
      cx="-123.226"
      cy="-101.835"
      fx="-123.226"
      fy="-101.835"
      r="5.47"
      gradientTransform="matrix(1.31586 0 0 .87049 39.043 -13.187)"
      gradientUnits="userSpaceOnUse"/>
    <radialGradient xlink:href="#a"
      id="c"
      cx="-98.811"
      cy="-101.701"
      fx="-98.811"
      fy="-101.701"
      r="5.54"
      gradientTransform="matrix(1.31586 0 0 .8596 31.563 -14.385)"
      gradientUnits="userSpaceOnUse"/>
    <linearGradient id="a">
      <stop style="stop-color:#ffd6ca;stop-opacity:1"
        offset="0"/>
      <stop style="stop-color:#ffd6ca;stop-opacity:0"
        offset="1"/>
    </linearGradient>
  </defs>
  <g transform="translate(1046.761 2044.81)"/>
  <g transform="translate(1046.761 2044.81)"/>
  <path style="fill:#e29578;fill-opacity:1;stroke:none;stroke-width:1px;stroke-linecap:butt;stroke-linejoin:miter;stroke-opacity:1"
    d="M757.155 823.303c29.898-63.906 119.59-39.988 181.255-24.292 61.664 15.697 95.298 23.17 134.912 28.776 39.615 5.606 85.208 9.343 115.105 11.212 29.898 1.868 44.099 1.868 54.562-9.343 10.464-11.212 17.19-33.634 29.15-72.502 11.96-38.867 29.15-94.176 45.967-146.124 16.818-51.947 33.261-100.53 48.21-147.245 14.949-46.715 28.403-91.56 37.746-115.479 9.343-23.918 14.575-26.908 29.525-26.534 14.949.374 39.614 4.111 63.158 7.848 23.545 3.737 45.967 7.475 60.169 13.455 14.201 5.98 20.18 14.201 18.685 54.937-1.496 40.736-10.465 113.984-23.545 199.566-13.08 85.583-30.271 183.495-48.583 266.461-18.313 82.967-37.746 150.982-59.048 199.94-21.302 48.957-44.472 78.853-67.643 97.54-23.17 18.685-46.34 26.16-102.773 32.139-56.432 5.98-146.123 10.464-226.847 9.717-80.723-.748-152.476-6.727-194.333-9.717-41.856-2.99-53.815-2.99-74.744-78.856-20.929-75.865-50.826-227.592-20.928-291.499z"
    transform="translate(1046.761 2044.81)"/>
  <path style="opacity:1;fill:#ffe8da;fill-opacity:1;fill-rule:evenodd;stroke:#ffe8da;stroke-width:3.8;stroke-linecap:round;stroke-linejoin:round;stroke-miterlimit:4;stroke-dasharray:none;stroke-opacity:1"
    d="M1432.24 80.134c5-12.933 27.485-106.992 36.963-154.617 6.311-31.718 13.302-60.7 15.84-65.676 4.557-8.932 15.734-17.674 22.618-17.69 6.066-.014 6.522 8.916 2.01 39.403-2.358 15.939-5.415 41.592-6.792 57.008-1.376 15.416-4.466 45.183-6.864 66.149-2.399 20.965-4.363 42.721-4.365 48.346v10.227L1481 66.06c-5.859 1.527-19.545 6.144-30.414 10.26-15.773 5.972-19.476 6.742-18.344 3.814zm168.16 89.196c-12.333-.992-31.97-3.505-43.637-5.584l-21.213-3.78 30.182-10.495c35.372-12.3 41.898-15.504 54.211-26.605 26.326-23.735 22.329-58.4-8.204-71.158-10.855-4.535-48.79-4.626-71.541-.172l-15.355 3.006 1.557-12.583c.856-6.92 1.712-12.662 1.901-12.758 2.939-1.498 36.408-10.182 43.319-11.24 8.774-1.343 9.557-1.01 12.931 5.515 3.97 7.678 13.785 13.748 22.228 13.748 3.014 0 12.269-2.097 20.566-4.66l15.085-4.658 7.013 6.632c9.85 9.314 15.294 11.655 27.103 11.655 9.15 0 10.562.686 12.707 6.167 5.892 15.053-8.077 92.102-19.386 106.93-9.75 12.782-18.927 14.109-69.468 10.04z"
    transform="translate(1046.761 2044.81)"/>
  <path style="opacity:1;fill:#ffe8da;fill-opacity:1;fill-rule:evenodd;stroke:#ffe8da;stroke-width:3.8;stroke-linecap:round;stroke-linejoin:round;stroke-miterlimit:4;stroke-dasharray:none;stroke-opacity:1"
    d="M1548.826 325.137c-29.449-6.919-74.636-12.102-105.534-12.106l-24.811-.003-5.02-31.953c-7.344-46.75-14.209-113.47-12.806-124.465 1.674-13.113 6.79-20.022 22.197-29.981 38.333-24.776 145.57-52.725 171.96-44.818 10.462 3.134 11.314 7.069 3.274 15.109-8.017 8.017-27.884 16.474-70.363 29.953-50.247 15.944-71.61 24.364-74.228 29.255-3.543 6.62-2.563 15.28 2.275 20.12 5.488 5.487 15.025 5.556 30.198.217l11.138-3.92 4.609 6.839c4.098 6.081 7.367 7.504 29.519 12.852 30.297 7.314 66.347 11.345 104.472 11.681 27.605.243 28.532.407 27.178 4.79-5.122 16.583-26.13 47.123-57.877 84.14-10.049 11.717-21.118 25.086-24.598 29.711-3.48 4.625-6.966 8.282-7.744 8.128-.779-.155-11.506-2.652-23.839-5.55z"
    transform="translate(1046.761 2044.81)"/>
  <path style="fill:#e29578;fill-opacity:1;stroke:#000;stroke-width:0;stroke-linecap:butt;stroke-linejoin:miter;stroke-miterlimit:4;stroke-dasharray:none;stroke-opacity:1"
    d="m102.883 130.51-3.31 1.016-5.893.267-4.268 1.975-4.975 5.746-5.045 7.147-4.625 5.886-3.644 5.746-.77 2.453.49 3.363 3.294 3.644 6.656 4.625 6.027 3.083 3.787 1.495 1.51-5.617-5.589-5.59-3.924-4.255.782-1.379 3.854-3.363 5.396-5.326.42 6.097 1.682 5.745.35 4.065-1.156 7.148-1.507 5.324-1.681 7.008L90 190l4.457 1.367 8.059 1.682 7.988.21 7.077-.7 5.746-1.332 2.803-.91 1.974-1.596-1.535-4.44-1.49-6.858-1.471-3.434-.981-4.694-.561-4.765 1.121-3.083 2.172-3.995-.07-3.573-.77-3.924-.673-2.328 5.297-.125.7-13.778-4.764-1.918-4.274-.56-3.434.49-3.223 2.102-2.873.84-5.045-.91-2.313-1.822z"
    transform="matrix(31.72936 0 0 30.96434 -2223.952 -1326.892)"/>
  <path style="fill:#acd0e8;fill-opacity:1;stroke:#000;stroke-width:1px;stroke-linecap:butt;stroke-linejoin:miter;stroke-opacity:1"
    d="M-336.458 2607.292c16.668 12.5 50 22.917 94.272 33.854 44.272 10.938 99.479 22.396 160.938 30.208 61.459 7.813 129.166 11.98 197.396 14.584 68.23 2.604 136.978 3.645 199.478.52 62.501-3.125 118.75-10.416 161.458-16.146 42.71-5.729 71.875-9.896 110.69-20.775 38.816-10.88 87.278-28.473 123.147-44.408 35.87-15.936 59.143-30.214 71.659-38.142 12.515-7.928 14.271-9.506 13.168-30.028-1.103-20.523-5.066-59.99-18.897-116.313-13.83-56.323-37.527-129.498-57.19-192.52-19.661-63.022-35.286-115.885-49.348-163.151-14.063-47.266-26.563-88.932-36.98-129.037-10.416-40.104-18.75-78.645-22.916-117.708-4.167-39.063-4.167-78.646 3.646-114.584 7.812-35.938 23.437-68.229 39.062-95.833 15.625-27.605 31.25-50.521 42.708-77.605 11.459-27.083 18.75-58.332 16.667-100.52-2.083-42.188-13.541-95.312-22.916-136.979-9.376-41.667-16.667-71.875-23.438-100-6.77-28.125-13.02-54.166-20.312-91.146-7.292-36.98-15.625-84.895-25-131.77-9.376-46.876-19.792-92.708-32.292-132.813-12.5-40.104-27.083-74.479-39.583-99.479s-22.917-40.625-32.292-46.355c-9.375-5.73-17.708-1.563-23.438 2.604s-8.854 8.333-5.729 24.48c3.126 16.147 12.5 44.271 22.396 75.522 9.896 31.25 20.313 65.624 27.604 96.874 7.292 31.25 11.459 59.375 16.146 92.188 4.688 32.813 9.896 70.312 12.5 99.479 2.604 29.167 2.604 50 2.083 61.458-.52 11.458-1.563 13.541-7.812 15.103-6.25 1.563-17.708 2.604-68.75 4.167-51.043 1.562-141.666 3.646-215.104 4.687-73.438 1.042-129.687 1.042-173.958 2.604-44.271 1.563-76.562 4.688-96.354 4.167-19.792-.52-27.083-4.687-30.73-11.978-3.646-7.292-3.646-17.708-5.208-45.834-1.563-28.125-4.688-73.958-11.98-122.916-7.291-48.96-18.75-101.042-29.687-142.188C-82.29 810.417-92.708 780.21-100 758.334c-7.291-21.875-11.458-35.416-16.666-43.23-5.208-7.812-11.458-9.895-24.479-11.979-13.021-2.083-32.812-4.167-43.75-2.604-10.939 1.563-13.022 6.771-13.022 15.105s2.084 19.792 9.897 41.667c7.812 21.876 21.354 54.167 32.812 92.188 11.458 38.021 20.833 81.77 27.604 129.166 6.77 47.397 10.937 98.437 10.416 142.188-.52 43.75-5.729 80.207-14.583 110.416-8.854 30.208-21.354 54.166-38.021 76.041s-37.5 41.666-55.208 57.291c-17.709 15.626-32.292 27.084-47.396 38.021-15.104 10.938-30.729 21.354-40.104 28.646-9.375 7.292-12.5 11.459-10.937 27.605 1.562 16.147 7.812 44.271 18.75 83.855 10.938 39.584 26.562 90.625 36.458 134.375 9.896 43.75 14.062 80.208 11.979 121.354-2.084 41.146-10.417 86.979-12.5 133.854-2.083 46.876 2.083 94.791 3.125 140.104 1.042 45.313-1.042 88.02-6.771 131.771-5.73 43.75-15.104 88.541-26.042 136.98-10.937 48.437-23.437 100.52-32.812 138.54-9.375 38.022-15.625 61.98-18.75 81.25-3.125 19.272-3.125 33.855 13.542 46.354z"
    transform="translate(1046.761 2044.81)"/>
  <path style="fill:#ffe8da;fill-opacity:1;stroke:#000;stroke-width:0;stroke-linecap:butt;stroke-linejoin:miter;stroke-miterlimit:4;stroke-dasharray:none;stroke-opacity:1"
    d="M104.758 124.378a.29.29 0 0 1-.198-.31.288.288 0 0 1 .268-.25h.07c.106 0 .21-.035.316-.035.095 0 .19.027.276.07.086.042.164.099.238.159.15.12.29.257.467.331.068.029.14.047.21.07.174.058.339.143.49.246.07.047.137.098.21.14.208.117.452.15.69.148.238-.002.474-.036.712-.043a.822.822 0 0 1 .165.007.33.33 0 0 1 .15.063c.04.03.068.072.105.105.069.06.16.09.251.101.091.011.183.005.275.004.305-.004.607.048.91.07a4 4 0 0 0 .632 0c.247-.02.491-.068.739-.087.247-.019.503-.007.732.087.058.024.115.053.175.07.125.036.257.018.386 0 .49-.066 1.001-.12 1.471.035.15.05.294.12.45.142a.56.56 0 0 0 .234-.012.365.365 0 0 0 .192-.13c.026-.034.044-.074.07-.108a.196.196 0 0 1 .045-.045.119.119 0 0 1 .06-.022l.035.002a.102.102 0 0 0 .035-.002.067.067 0 0 0 .03-.016.1.1 0 0 0 .02-.026.223.223 0 0 0 .02-.063.438.438 0 0 1 .019-.071.14.14 0 0 1 .04-.062.09.09 0 0 1 .031-.018.075.075 0 0 1 .037-.003.063.063 0 0 1 .032.016c.01.01.015.02.017.033v.21c0 .058.002.117.005.175a.73.73 0 0 1-.005.175c-.015.073-.052.139-.07.21a.64.64 0 0 0 .016.32c.027.104.067.205.089.311.029.138.027.28.035.42.016.317.075.63.105.946.014.157.024.321.105.456.022.036.048.069.07.105a.69.69 0 0 1 .084.256c.013.089.015.18.021.27.011.163.036.326.035.49 0 .086-.008.173.002.259.01.085.04.172.103.232.012.011.025.021.035.035.01.014.017.031.02.05a.172.172 0 0 1 0 .053c-.004.036-.015.07-.02.107a.37.37 0 0 0 .04.212.65.65 0 0 0 .135.173c.021.02.044.04.063.063a.187.187 0 0 1 .042.077.243.243 0 0 1 0 .088.299.299 0 0 0 0 .088.236.236 0 0 0 .031.071c.014.023.029.045.039.069.024.055.021.118.023.178.001.03.003.06.01.09s.019.058.038.082c.02.026.049.045.07.07a.23.23 0 0 1 .046.113c.006.04.006.082.007.123a.433.433 0 0 0 .016.121.18.18 0 0 0 .07.099c.023.014.048.021.07.035a.164.164 0 0 1 .065.074c.014.03.018.065.015.098a.266.266 0 0 1-.097.17.523.523 0 0 1-.176.092c-.063.02-.128.035-.192.056a.878.878 0 0 0-.315.175c-.061.055-.113.12-.175.175-.09.08-.2.136-.309.187-.109.05-.22.098-.322.164-.097.064-.183.145-.28.21-.182.123-.396.188-.596.28-.142.066-.277.146-.42.21-.405.183-.86.234-1.261.42-.081.039-.16.082-.246.106-.08.023-.162.028-.245.035a2.558 2.558 0 0 0-.28.035c-.164.033-.324.094-.49.105-.082.005-.164-.002-.246 0-.225.005-.443.074-.666.105a3.467 3.467 0 0 1-.77 0c-.539-.045-1.074-.12-1.612-.175a.605.605 0 0 1-.175-.035.57.57 0 0 1-.178-.136c-.053-.054-.106-.11-.173-.144a.502.502 0 0 0-.206-.049c-.071-.004-.143.001-.214-.002a.537.537 0 0 1-.208-.043.3.3 0 0 1-.087-.061.234.234 0 0 1-.055-.09c-.006-.018-.01-.037-.014-.055a.163.163 0 0 0-.021-.05.144.144 0 0 0-.08-.051c-.032-.01-.064-.012-.096-.02a.518.518 0 0 1-.208-.116c-.061-.052-.116-.112-.177-.164-.126-.108-.279-.187-.385-.315-.038-.045-.068-.095-.105-.14a.594.594 0 0 0-.187-.153.513.513 0 0 0-.234-.058c-.07 0-.142.016-.21 0-.05-.01-.093-.037-.138-.06a.318.318 0 0 0-.142-.045c-.024 0-.048.004-.07 0a.12.12 0 0 1-.061-.033.368.368 0 0 1-.045-.054.374.374 0 0 0-.044-.054.124.124 0 0 0-.06-.034.103.103 0 0 0-.036 0 .146.146 0 0 1-.07-.035c-.022-.02-.037-.045-.052-.07a.265.265 0 0 0-.053-.07.23.23 0 0 0-.085-.04c-.03-.01-.062-.017-.09-.03-.054-.025-.094-.07-.135-.113a.526.526 0 0 0-.066-.059.224.224 0 0 0-.08-.038c-.023-.006-.048-.006-.072-.01a.13.13 0 0 1-.067-.026.156.156 0 0 1-.037-.051c-.01-.02-.019-.039-.034-.054-.02-.021-.05-.032-.077-.045a.186.186 0 0 1-.038-.024.081.081 0 0 1-.025-.036c-.006-.019-.002-.04-.004-.06a.05.05 0 0 0-.008-.027.036.036 0 0 0-.022-.018.07.07 0 0 0-.018 0h-.017a.045.045 0 0 1-.029-.016.08.08 0 0 1-.017-.028c-.008-.02-.012-.043-.024-.061a.128.128 0 0 0-.05-.04c-.019-.01-.039-.017-.055-.03a.16.16 0 0 1-.046-.065c-.01-.024-.017-.05-.025-.076-.107-.378-.369-.702-.455-1.086a.371.371 0 0 1 0-.21.337.337 0 0 1 .078-.113c.032-.033.067-.063.097-.097a.606.606 0 0 0 .14-.315c.011-.076.01-.154.026-.229a.387.387 0 0 1 .038-.108.235.235 0 0 1 .076-.084c.022-.014.047-.024.07-.035a.368.368 0 0 0 .116-.083.227.227 0 0 0 .06-.127c.002-.023 0-.047 0-.07a.519.519 0 0 1 .175-.386c.047-.042.102-.076.149-.12a.363.363 0 0 0 .062-.071.217.217 0 0 0 .034-.089c.006-.046-.006-.094 0-.14a.3.3 0 0 1 .029-.09c.013-.028.029-.056.041-.085a.7.7 0 0 0 .03-.349c-.013-.117-.036-.234-.03-.352.007-.142.057-.279.07-.42.01-.111 0-.223-.01-.334a1.171 1.171 0 0 1 .01-.332c.024-.114.079-.218.122-.326a.62.62 0 0 0 .053-.34c-.006-.03-.014-.058-.018-.088a.137.137 0 0 1 .001-.045.104.104 0 0 1 .017-.042c.01-.013.024-.024.036-.034a.135.135 0 0 0 .035-.036.113.113 0 0 0 .01-.07c-.003-.023-.01-.046-.01-.07a.235.235 0 0 1 .014-.091.706.706 0 0 1 .037-.085.382.382 0 0 0 .054-.174.19.19 0 0 0-.07-.14zm-10.826 48.49a.824.824 0 0 0-.36-.429.824.824 0 0 0-.551-.096c-.06.01-.117.027-.177.033a.268.268 0 0 1-.173-.033c-.042-.027-.07-.07-.106-.105a.361.361 0 0 0-.246-.109.314.314 0 0 0-.244.109.486.486 0 0 0-.08.153c-.019.054-.035.11-.06.162-.037.076-.092.14-.14.21a.484.484 0 0 0-.056.1.22.22 0 0 0-.014.11c.004.03.017.059.03.086.013.028.028.055.036.084.009.03.01.061 0 .09a.092.092 0 0 1-.025.037.075.075 0 0 1-.041.019h-.035a.094.094 0 0 0-.051.019.118.118 0 0 0-.035.042.192.192 0 0 0-.014.107c.005.037.015.072.023.108a.285.285 0 0 1 .007.11.236.236 0 0 1-.035.083c-.016.026-.036.05-.055.073a.633.633 0 0 0-.054.073.222.222 0 0 0-.032.085c-.006.047.008.094 0 .14a.23.23 0 0 1-.042.094c-.02.028-.043.054-.063.082a.628.628 0 0 0-.106.347c-.004.122.018.244.045.364s.06.239.076.36a.882.882 0 0 1-.015.365c-.021.076-.057.148-.064.226-.004.04 0 .08.017.115a.149.149 0 0 0 .082.08c.022.008.046.009.067.018.01.004.02.01.028.02.007.009.012.02.01.032l-.003.018v.009c0 .003.001.006.003.008a.022.022 0 0 0 .008.005h.01c.006 0 .012-.003.017-.005a.12.12 0 0 1 .06-.003.16.16 0 0 1 .056.023c.033.022.06.054.084.086.024.033.047.066.077.093a.2.2 0 0 0 .05.034.143.143 0 0 0 .059.013c.024 0 .047-.008.07-.012a.108.108 0 0 1 .037 0 .082.082 0 0 1 .033.012.073.073 0 0 1 .02.024c.006.01.01.02.014.03.004.01.008.02.014.028a.07.07 0 0 0 .022.023c.01.006.022.009.034.009a.22.22 0 0 0 .036-.004l.035-.007a.105.105 0 0 1 .035.002.085.085 0 0 1 .038.025l.028.035c.009.012.02.024.032.033a.062.062 0 0 0 .042.012c.013-.001.024-.008.037-.01a.043.043 0 0 1 .018 0 .02.02 0 0 1 .015.01c.003.005.004.011.003.017l-.003.018a.087.087 0 0 0 .01.052c.009.016.02.03.035.04.028.022.063.034.096.048.106.045.203.113.314.145a.371.371 0 0 0 .17.012.235.235 0 0 0 .146-.087.39.39 0 0 0 .053-.122c.013-.043.026-.087.052-.123l.041-.05a.136.136 0 0 0 .03-.055.207.207 0 0 0-.004-.07.208.208 0 0 1-.003-.036c0-.011.002-.023.006-.034.01-.02.026-.034.041-.05a.144.144 0 0 0 .02-.025.06.06 0 0 0 .01-.03c0-.012-.005-.024-.007-.036a.055.055 0 0 1 0-.018.03.03 0 0 1 .006-.016.024.024 0 0 1 .018-.008c.007 0 .013.003.018.008a.07.07 0 0 0 .035-.07c-.003-.02-.014-.037-.018-.055a.056.056 0 0 1 0-.03.033.033 0 0 1 .006-.012.03.03 0 0 1 .012-.009.035.035 0 0 1 .017-.002l.018.002c.022.003.044 0 .065-.007a.168.168 0 0 0 .056-.034.225.225 0 0 0 .064-.115c.02-.086 0-.176-.01-.264a.602.602 0 0 1 0-.175c.019-.11.084-.207.105-.315.016-.081.007-.164 0-.246-.012-.141-.018-.289.035-.42a.496.496 0 0 1 .035-.07v-1.612zm30.516-112.921c.301-.591.747-1.124 1.332-1.437a2.93 2.93 0 0 1 1.314-.329c.456-.01.91.073 1.344.215a5.42 5.42 0 0 1 2.002 1.2c1.113 1.043 1.78 2.485 2.172 3.96.181.682.309 1.378.514 2.053.206.675.495 1.337.957 1.87.57.658 1.363 1.075 2.138 1.472 1.232.63 2.48 1.254 3.573 2.102.685.532 1.313 1.162 1.705 1.934.196.387.33.806.376 1.237.045.43-.001.873-.154 1.279-.266.71-.85 1.276-1.53 1.609-.682.332-1.455.447-2.212.424-1.516-.044-2.963-.61-4.456-.877-2.603-.465-5.276-.013-7.918-.105-2.195-.076-4.452-.565-6.202-1.892-.374-.284-.73-.614-.934-1.036a1.584 1.584 0 0 1-.166-.679 1.21 1.21 0 0 1 .19-.667c.164-.25.423-.419.665-.596 1.288-.944 2.22-2.292 3.013-3.679.677-1.185 1.277-2.438 1.507-3.784.19-1.115.12-2.272.42-3.363.086-.315.202-.62.35-.911z"
    transform="matrix(31.72936 0 0 30.96434 -2223.952 -1326.892)"/>
  <path style="fill:#ffe8da;fill-opacity:1;stroke:#000;stroke-width:0;stroke-linecap:butt;stroke-linejoin:miter;stroke-miterlimit:4;stroke-dasharray:none;stroke-opacity:1"
    d="M118.702 71.684c-1.354.63-2.539 1.567-3.765 2.42-1.227.854-2.544 1.647-4.013 1.924-.553.105-1.118.134-1.681.14-2.156.024-4.3-.29-6.447-.49-1.198-.112-2.402-.19-3.584-.414-1.182-.224-2.351-.602-3.353-1.268-.236-.156-.462-.329-.718-.449-.256-.12-.55-.185-.824-.111a.988.988 0 0 0-.39.214c-.113.099-.205.22-.28.35-.148.26-.223.554-.29.846-.202.883-.346 1.78-.581 2.654a13.62 13.62 0 0 1-3.083 5.606 15.918 15.918 0 0 1-3.084 2.592c-.841.55-1.73 1.03-2.662 1.402-.421.168-.852.313-1.263.504-.411.19-.807.43-1.12.757-.343.36-.573.812-.87 1.211-.15.2-.317.388-.517.536-.2.149-.434.257-.681.285-.366.042-.729-.09-1.064-.243-.335-.153-.666-.331-1.03-.39-.463-.075-.944.055-1.353.287-.408.232-.754.56-1.072.907-.433.47-.828.985-1.096 1.566-.267.581-.403 1.235-.305 1.867.086.56.351 1.081.695 1.532.344.45.765.835 1.197 1.201.621.527 1.303 1.034 2.102 1.191.55.109 1.119.043 1.666-.078.546-.121 1.08-.297 1.627-.412 1.219-.257 2.486-.208 3.714 0 3.31.56 6.328 2.246 9.044 4.218s5.197 4.251 7.914 6.223c2.145 1.557 4.445 2.924 6.924 3.863 2.48.939 5.147 1.44 7.79 1.252 2.64-.188 5.209-1.064 7.497-2.392 2.287-1.329 4.3-3.103 6.028-5.106 1.613-1.87 2.993-3.947 4.778-5.653.893-.853 1.887-1.61 2.998-2.15 1.11-.54 2.342-.856 3.576-.816.539.018 1.073.103 1.611.14 1.312.091 2.682-.123 3.784-.84a4.057 4.057 0 0 0 1.34-1.407 3.264 3.264 0 0 0 .412-1.887c-.092-.943-.649-1.806-1.401-2.382a3.73 3.73 0 0 0-1.258-.64 3.029 3.029 0 0 0-1.405-.061c-.285.058-.563.16-.854.176a1.04 1.04 0 0 1-.428-.06.674.674 0 0 1-.335-.268.696.696 0 0 1-.09-.417c.011-.144.058-.283.119-.414.121-.262.3-.496.396-.769.141-.4.085-.847-.057-1.247-.143-.4-.368-.764-.573-1.135-.613-1.106-1.07-2.315-1.191-3.574-.066-.675-.035-1.355 0-2.032.055-1.09.122-2.196.49-3.223.107-.298.239-.59.305-.899.033-.154.05-.313.038-.471a1.086 1.086 0 0 0-.133-.452c-.15-.265-.424-.441-.713-.539-.289-.098-.596-.126-.898-.162-3.686-.433-7.134-1.976-10.695-3.02-1.781-.521-3.61-.921-5.463-.987-1.855-.067-3.742.211-5.425.994z"
    transform="matrix(31.72936 0 0 30.96434 -2223.952 -1326.892)"/>
  <path style="fill:#ffe8da;fill-opacity:1;stroke:#000;stroke-width:0;stroke-linecap:butt;stroke-linejoin:miter;stroke-miterlimit:4;stroke-dasharray:none;stroke-opacity:1"
    d="M80.863 97.82c1.053 6.188 4.337 11.972 9.11 16.047.277.237.56.469.84.701 2.281 1.886 4.5 3.859 6.938 5.536 2.157 1.484 4.483 2.731 6.937 3.644 2.244.834 4.613 1.389 7.007 1.401 1.924.01 3.841-.332 5.676-.91 2.856-.902 5.5-2.368 8.058-3.925a95.64 95.64 0 0 0 4.555-2.943c1.152-.794 2.288-1.62 3.293-2.593 1.703-1.646 2.992-3.671 4.135-5.746.829-1.504 1.594-3.054 2.102-4.694.446-1.442.692-2.947 1.261-4.345.18-.443.393-.876.5-1.342.054-.233.08-.473.06-.712a1.564 1.564 0 0 0-.21-.679 1.529 1.529 0 0 0-.598-.551 2.096 2.096 0 0 0-.788-.224c-.548-.05-1.095.076-1.627.215a31.582 31.582 0 0 0-5.605 2.032c-2.03.964-3.945 2.152-5.956 3.153-3.81 1.896-7.925 3.1-12.053 4.134-3.603.903-7.384 1.685-11.001.841-1.917-.447-3.697-1.332-5.536-2.032-3.267-1.244-6.74-1.911-9.95-3.293-1.91-.823-3.704-1.888-5.536-2.873a72.78 72.78 0 0 0-1.612-.841"
    transform="matrix(31.72936 0 0 30.96434 -2223.952 -1326.892)"/>
  <path style="fill:#ffe8da;fill-opacity:1;stroke:#000;stroke-width:0;stroke-linecap:butt;stroke-linejoin:miter;stroke-miterlimit:4;stroke-dasharray:none;stroke-opacity:1"
    d="M96.98 104.408c.055-.37.114-.74.102-1.114-.012-.373-.099-.752-.312-1.059-.123-.176-.284-.323-.42-.49-.202-.246-.35-.534-.561-.77-.206-.231-.467-.405-.726-.573-.26-.167-.525-.332-.746-.549-.165-.162-.304-.353-.49-.49-.168-.125-.367-.201-.56-.28a7.326 7.326 0 0 1-1.122-.561c-.267-.168-.53-.365-.84-.42-.17-.031-.342-.018-.513-.03a1 1 0 0 1-.252-.049.557.557 0 0 1-.217-.132c-.046-.047-.083-.106-.14-.14a.287.287 0 0 0-.138-.037c-.048-.002-.096.004-.144.01a.702.702 0 0 1-.144.005.258.258 0 0 1-.135-.048c-.026-.02-.046-.047-.07-.07a.484.484 0 0 0-.22-.12.915.915 0 0 0-.253-.025c-.17.004-.34.033-.508.005a.736.736 0 0 1-.21-.07 6.688 6.688 0 0 0-1.191-.28c-.882-.125-1.783-.071-2.663-.211-.14-.022-.28-.05-.42-.07a3.562 3.562 0 0 0-1.472.07c-.257.072-.506.18-.77.21-.2.023-.401.002-.6.023a.945.945 0 0 0-.29.073.565.565 0 0 0-.232.185c-.085.121-.108.275-.14.42-.042.193-.105.383-.116.58a.831.831 0 0 0 .031.293c.03.094.081.183.155.248.07.063.159.103.245.141.086.039.174.078.246.14.103.089.163.217.239.33a.66.66 0 0 0 .135.153.34.34 0 0 0 .186.077h.07c.08 0 .16.022.231.058a.646.646 0 0 1 .189.147c.106.119.171.27.211.426.007.025.013.052.023.076a.15.15 0 0 0 .047.064c.015.01.032.017.05.021a.165.165 0 0 0 .054.002c.036-.003.071-.014.106-.023.167-.043.344-.036.51.005.167.04.325.115.471.204.117.071.227.153.35.21.202.095.428.122.631.21.221.097.407.262.631.351.137.055.285.08.42.14.138.061.257.157.368.258.11.1.216.21.333.303.41.326.942.45 1.402.7.137.076.27.163.42.21.136.044.28.053.42.07.72.091 1.393.409 2.103.561.394.085.798.118 1.19.21.472.111.921.306 1.332.561.303.188.588.41.911.56a2.4 2.4 0 0 0 1.612.141c.127-.034.251-.078.38-.11.127-.03.26-.049.39-.03.024.003.047.008.071.009.024 0 .048 0 .07-.01a.136.136 0 0 0 .067-.065.22.22 0 0 0 .021-.093c.001-.064-.016-.127-.018-.192a.383.383 0 0 1 .21-.35z"
    transform="matrix(31.72936 0 0 30.96434 -2223.952 -1326.892)"/>
  <path style="fill:#48362c;fill-opacity:1;stroke:#000;stroke-width:0;stroke-linecap:butt;stroke-linejoin:miter;stroke-miterlimit:4;stroke-dasharray:none;stroke-opacity:1"
    d="M126.527 51.129a17.198 17.198 0 0 0-2.953-2.968c-2.317-1.82-5.078-3.019-7.928-3.765a27.246 27.246 0 0 0-7.927-.892c-3.637.139-7.214 1.055-10.604 2.378-3.231 1.261-6.322 2.9-9.117 4.955-1.68 1.236-3.26 2.629-4.558 4.261-1.159 1.456-2.08 3.083-3.072 4.658-.659 1.044-1.356 2.08-1.785 3.237a8.82 8.82 0 0 0-.383 1.383c-.47 2.416-.055 4.913-.21 7.37-.11 1.717-.496 3.407-.991 5.054-.41 1.361-.893 2.699-1.289 4.063-.41 1.417-.728 2.904-.495 4.36.179 1.12.674 2.162 1.189 3.172.259.507.539 1.03.999 1.365.301.22.667.347 1.04.377a2.45 2.45 0 0 0 1.096-.173c.552-.219 1.017-.61 1.451-1.016.435-.405.856-.833 1.36-1.148 1.048-.655 2.35-.76 3.468-1.288 1.45-.686 2.467-2.018 3.469-3.27.728-.911 1.487-1.817 1.982-2.874.661-1.416.826-3.055 1.684-4.36.222-.338.49-.65.65-1.022.114-.265.171-.553.28-.82a1.46 1.46 0 0 1 .215-.376.867.867 0 0 1 .342-.26c.211-.085.453-.064.67.006.217.07.416.185.618.291 1.404.738 2.995 1.023 4.558 1.289 2.493.422 5.004.82 7.532.792 2.237-.023 4.492-.388 6.54-1.288 1.608-.707 3.065-1.733 4.344-2.936 1.657-1.557 3.03-3.422 3.98-5.487a16.752 16.752 0 0 0 1.09-3.171c.177-.75.302-1.517.578-2.237.277-.72.726-1.405 1.395-1.788.441-.253.956-.361 1.466-.367.509-.005 1.014.089 1.507.217.845.22 1.691.565 2.288 1.202.612.653.898 1.545 1.068 2.423.17.878.244 1.78.518 2.63.477 1.485 1.552 2.742 2.874 3.568 1.267.793 2.748 1.212 3.964 2.081a5.893 5.893 0 0 1 1.743 1.94c.422.767.654 1.643.635 2.52-.033 1.558-.834 3.007-.99 4.558-.117 1.148.13 2.314.594 3.37.277.63.63 1.225.902 1.858s.462 1.322.386 2.006c-.058.521-.266 1.014-.368 1.528a2.394 2.394 0 0 0-.042.782c.034.26.131.515.302.714.17.197.409.332.663.387.255.055.524.033.77-.051.493-.169.879-.576 1.112-1.042.327-.654.379-1.405.536-2.12.127-.579.326-1.14.48-1.712.156-.572.267-1.165.214-1.756-.075-.815-.457-1.572-.595-2.378-.159-.927.012-1.88.284-2.78.272-.9.644-1.767.905-2.67.361-1.252.503-2.58.297-3.865-.292-1.828-1.263-3.478-2.378-4.955-.382-.507-.787-1.004-1.075-1.57-.228-.446-.38-.929-.615-1.372-.41-.779-1.056-1.405-1.58-2.112-1.155-1.557-1.704-3.476-2.676-5.153-.642-1.11-1.51-2.142-2.675-2.676-.681-.312-1.432-.44-2.178-.508-.745-.068-1.496-.08-2.239-.176a10.094 10.094 0 0 1-5.316-2.393"
    transform="matrix(31.72936 0 0 30.96434 -2223.952 -1326.892)"/>
  <path style="fill:none;stroke:#48362c;stroke-width:1px;stroke-linecap:butt;stroke-linejoin:miter;stroke-opacity:1"
    d="M76.387 97.663a4.872 4.872 0 0 0-.562 2.628c.064.905.389 1.79.926 2.522.572.78 1.394 1.387 2.329 1.635 1.218.324 2.516.034 3.765.199a4.9 4.9 0 0 1 2.285.916 4.375 4.375 0 0 1 1.48 1.957c.332.891.346 1.88.153 2.81-.193.93-.585 1.809-1.044 2.64-.896 1.623-2.058 3.093-2.874 4.757-.423.864-.754 1.79-.808 2.751-.054.96.19 1.962.808 2.7a3.143 3.143 0 0 0 2.314 1.108"
    transform="matrix(31.72936 0 0 30.96434 -2223.952 -1326.892)"/>
  <path style="fill:#48362c;fill-opacity:1;stroke:#000;stroke-width:0;stroke-linecap:butt;stroke-linejoin:miter;stroke-miterlimit:4;stroke-dasharray:none;stroke-opacity:1"
    d="M78.166 99.117a.352.352 0 0 0 .314-.39.352.352 0 0 0-.07-.17.393.393 0 0 0-.142-.115.511.511 0 0 0-.178-.047.937.937 0 0 0-.364.055c-.117.038-.232.086-.35.119a.769.769 0 0 1-.367.023c-.13-.029-.245-.106-.374-.144a.416.416 0 0 0-.198-.014.27.27 0 0 0-.093.036.22.22 0 0 0-.07.071.22.22 0 0 0-.03.115c.001.04.011.08.029.116a.421.421 0 0 0 .166.169c.137.083.303.114.43.211a.51.51 0 0 1 .169.58.513.513 0 0 1-.233.27.512.512 0 0 1-.75-.483.513.513 0 0 1 .813-.366.59.59 0 0 0-.429.024.59.59 0 0 0-.296.313.718.718 0 0 0-.045.305c.006.104.03.206.06.305.06.199.148.39.186.594.049.265.01.537 0 .806-.007.198.001.397 0 .595-.001.106-.004.215.029.315.016.05.042.098.079.136a.25.25 0 0 0 .137.075.206.206 0 0 0 .07 0c.019.06.042.119.07.175a.472.472 0 0 0 .175.21c.058.033.125.045.186.071.03.013.06.03.083.053a.153.153 0 0 1 .047.086.128.128 0 0 1 0 .035.067.067 0 0 0 .035.07c.012.007.025.01.038.013a.11.11 0 0 1 .018.008c.005.004.01.008.014.014a.034.034 0 0 1 0 .035.265.265 0 0 0 .105.105c.046.026.099.038.14.07a.255.255 0 0 1 .072.1c.017.039.029.079.043.118.014.04.032.078.059.11a.16.16 0 0 0 .106.058c.024.002.047-.003.07 0a.133.133 0 0 1 .06.025.255.255 0 0 1 .045.045c.03.037.055.077.088.112a.233.233 0 0 0 .055.044c.02.011.044.019.068.02.023 0 .047-.007.07-.01a.141.141 0 0 1 .036 0 .076.076 0 0 1 .034.01.113.113 0 0 1 .035.034c.098.126.201.248.323.35a.988.988 0 0 0 .42.215.639.639 0 0 0 .46-.067.5.5 0 0 0 .168-.166.44.44 0 0 0 .065-.226v-.035a.314.314 0 0 1 .039-.128c.02-.04.045-.078.066-.118a.465.465 0 0 0 .06-.194.276.276 0 0 0-.06-.191.229.229 0 0 0-.105-.07.297.297 0 0 0-.14-.175c-.055-.03-.118-.043-.175-.07-.05-.025-.093-.06-.136-.095a.439.439 0 0 0-.144-.08c-.04-.012-.083-.013-.123-.025a.153.153 0 0 1-.055-.029.094.094 0 0 1-.032-.052c-.004-.02 0-.04-.003-.06a.066.066 0 0 0-.01-.028.04.04 0 0 0-.022-.017.051.051 0 0 0-.018 0l-.018.004a.108.108 0 0 1-.018.002.028.028 0 0 1-.017-.007.026.026 0 0 1-.007-.016c-.001-.006 0-.012.001-.018.003-.012.007-.023.007-.036a.045.045 0 0 0-.01-.023.08.08 0 0 0-.018-.018c-.014-.01-.03-.017-.043-.029a.1.1 0 0 1-.025-.038.164.164 0 0 1-.01-.045c-.002-.03.002-.061 0-.092a.398.398 0 0 0-.05-.167 1.258 1.258 0 0 0-.095-.146 1.033 1.033 0 0 1-.094-.149.37.37 0 0 1-.04-.169c0-.03.005-.058.008-.088a.196.196 0 0 0-.009-.087.231.231 0 0 0-.05-.071c-.02-.022-.041-.043-.055-.069a.22.22 0 0 1-.019-.122c.004-.041.014-.082.019-.123.021-.165-.031-.33-.07-.49a2.306 2.306 0 0 1-.07-.631c.002-.054.006-.108.004-.161a.36.36 0 0 0-.04-.155c-.02-.037-.049-.068-.07-.105a.396.396 0 0 1-.043-.19c-.001-.065.006-.13.009-.195a.497.497 0 0 0-.01-.13.235.235 0 0 0-.06-.116c-.022-.021-.05-.037-.071-.058a.127.127 0 0 1-.028-.037.076.076 0 0 1-.007-.045c.003-.012.008-.023.01-.036a.043.043 0 0 0 0-.018.026.026 0 0 0-.01-.016.028.028 0 0 0-.017-.004.066.066 0 0 0-.018.004.224.224 0 0 0-.148.229.224.224 0 0 0 .185.2.224.224 0 0 0 .24-.13.224.224 0 0 0-.066-.264zm6.972 5.921c.534.236.948.73 1.086 1.297.012.049.022.098.037.146a.41.41 0 0 0 .068.134c.029.036.066.064.1.096.033.032.064.07.075.114.008.03.007.06.009.09 0 .015.002.03.006.045s.01.029.02.04a.147.147 0 0 0 .067.042c.024.01.05.016.073.028.037.02.064.054.082.091a.37.37 0 0 1 .03.12c.01.082.003.166.029.245.017.055.05.104.08.154a.38.38 0 0 1 .06.161c.003.047-.009.094 0 .14a.163.163 0 0 0 .07.105.46.46 0 0 1 .07.14c.023.08.022.164.035.246.03.194.131.37.175.56.042.183.035.373.035.561v.245a.093.093 0 0 1-.015.044.101.101 0 0 1-.034.032.12.12 0 0 1-.09.011.151.151 0 0 1-.077-.05.21.21 0 0 1-.04-.084.488.488 0 0 1 .001-.187c.01-.062.02-.124.01-.186a.369.369 0 0 0-.035-.105.531.531 0 0 0-.291-.259.58.58 0 0 0-.391 0 .64.64 0 0 0-.31.241.713.713 0 0 0-.121.375.806.806 0 0 0 .085.385c.059.12.146.224.25.307a1.2 1.2 0 0 0 .743.247c.105 0 .21-.01.315 0 .035.003.07.01.106.01a.29.29 0 0 0 .104-.01.252.252 0 0 0 .114-.082.516.516 0 0 0 .072-.122c.038-.087.066-.181.13-.251.022-.025.048-.046.07-.07a.398.398 0 0 0 .086-.183c.014-.066.017-.135.019-.203a3.086 3.086 0 0 0 0-.245c-.004-.067-.011-.135-.005-.202a.304.304 0 0 1 .075-.184c.011-.011.024-.022.035-.035a.178.178 0 0 0 .038-.081.285.285 0 0 0 .002-.091c-.008-.06-.029-.118-.04-.178-.023-.122-.004-.247.007-.37a.7.7 0 0 0-.042-.366c-.03-.061-.075-.114-.105-.175-.045-.09-.058-.192-.105-.28a.77.77 0 0 0-.224-.231c-.086-.066-.175-.133-.232-.225-.064-.104-.08-.23-.108-.35a.794.794 0 0 0-.057-.174.372.372 0 0 0-.115-.141.445.445 0 0 0-.239-.07c-.084-.004-.168.004-.252 0a.264.264 0 0 1-.056-.008.11.11 0 0 1-.049-.028.105.105 0 0 1-.028-.067.19.19 0 0 1 .012-.073c.016-.047.043-.09.051-.14a.198.198 0 0 0-.008-.094.233.233 0 0 0-.048-.08.313.313 0 0 0-.163-.092c-.123-.029-.251.002-.376.02a.15.15 0 0 1-.07 0 .097.097 0 0 1-.04-.022.157.157 0 0 1-.027-.035c-.016-.026-.025-.055-.038-.082a.374.374 0 0 0-.316-.21m9.075 12.788a.355.355 0 0 0-.386.245.508.508 0 0 0-.017.175c.003.059.012.117.017.175.037.385-.065.772-.035 1.157.007.082.019.165 0 .245a.448.448 0 0 1-.105.19c-.048.055-.104.102-.16.15a.947.947 0 0 0-.15.158.372.372 0 0 0-.075.203c-.001.035.004.07-.003.104a.103.103 0 0 1-.022.047.068.068 0 0 1-.045.024c-.012 0-.024-.002-.035 0a.052.052 0 0 0-.022.011.056.056 0 0 0-.014.021.083.083 0 0 0 0 .05c.008.032.03.06.036.093a.074.074 0 0 1-.004.043.046.046 0 0 1-.031.028c-.012.002-.024-.002-.036 0a.043.043 0 0 0-.025.013.06.06 0 0 0-.015.025.112.112 0 0 0 .001.058c.005.019.011.037.014.057v.03a.068.068 0 0 1-.01.027c-.009.014-.023.023-.037.033a.15.15 0 0 0-.019.016.06.06 0 0 0-.014.02.079.079 0 0 0-.002.036c.001.011.003.023.002.035a.095.095 0 0 1-.011.038.258.258 0 0 1-.022.033c-.008.01-.016.02-.023.032a.104.104 0 0 0-.014.037c-.003.023.004.047 0 .07a.086.086 0 0 1-.015.035.139.139 0 0 1-.026.027c-.02.016-.043.028-.064.043a.427.427 0 0 0-.116.15c-.03.056-.055.115-.094.166-.07.092-.178.15-.245.245a.379.379 0 0 0-.07.21.127.127 0 0 0-.105.07.24.24 0 0 0-.019.07c-.004.024-.007.048-.016.07a.26.26 0 0 1-.052.071.364.364 0 0 0-.054.07c-.022.042-.024.093-.035.14-.025.11-.098.203-.166.294a1.144 1.144 0 0 0-.095.14.439.439 0 0 0-.054.161c-.003.03-.002.06-.006.09a.17.17 0 0 1-.029.085c-.02.027-.051.043-.07.07a.172.172 0 0 0-.026.086c-.002.03-.002.06-.01.09-.011.05-.044.094-.07.14a.638.638 0 0 0-.071.255c-.008.089 0 .178.011.266.024.177.068.352.06.53-.008.22-.096.428-.136.644a.923.923 0 0 0-.01.328.515.515 0 0 0 .147.29c.024.022.051.042.07.07a.18.18 0 0 1 .028.075.303.303 0 0 1 0 .08c-.007.054-.023.106-.028.16a.619.619 0 0 0 .054.289c.037.092.085.18.121.271.063.158.09.328.14.49a.863.863 0 0 0 .144.294.42.42 0 0 0 .277.162c.06.006.12-.005.18.004.03.004.059.013.084.03a.121.121 0 0 1 .051.072c.004.018.003.038.006.057.001.01.004.02.009.027a.051.051 0 0 0 .02.02c.01.006.024.006.035 0l.035.036c.054.052.112.102.162.158.051.056.095.12.118.192.015.046.02.094.035.14a.67.67 0 0 0 .085.16c.033.05.068.1.09.155.041.1.043.21.036.316-.004.06-.01.121.008.178a.17.17 0 0 0 .049.074c.023.02.053.03.083.028l.017-.002c.006 0 .012 0 .018.002a.045.045 0 0 1 .012.008.04.04 0 0 1 .007.013c.004.009.003.02.001.029-.004.019-.015.036-.02.055a.122.122 0 0 0-.003.056.21.21 0 0 0 .018.054c.017.034.04.066.055.1.027.06.034.127.03.192-.004.065-.018.13-.03.194a.622.622 0 0 0-.008.272.276.276 0 0 0 .064.12.203.203 0 0 0 .12.063c.034.005.07 0 .105-.005a.246.246 0 0 1 .104.005c.04.014.071.046.105.07a.4.4 0 0 0 .175.067.7.7 0 0 0 .189-.002c.125-.017.247-.055.372-.065.152-.012.304.019.456.035.348.039.7.005 1.05 0 .456-.007.912.032 1.367.035.164.001.327-.003.49 0 .246.004.491.023.736.035.086.004.173.008.257-.005a.455.455 0 0 0 .234-.1c.025-.022.046-.047.07-.07a.6.6 0 0 1 .227-.136.798.798 0 0 1 .264-.039c.06 0 .118.007.178.005a.375.375 0 0 0 .172-.04c.037-.021.068-.05.1-.078a.277.277 0 0 1 .11-.063c.046-.01.093-.002.14 0a.365.365 0 0 0 .113-.013.243.243 0 0 0 .097-.057c.024-.023.043-.051.07-.07a.2.2 0 0 1 .104-.026c.035-.002.072 0 .107-.008.03-.007.059-.022.087-.036a.36.36 0 0 1 .088-.035.36.36 0 0 1 .105 0c.035.003.07.007.105 0 .037-.006.07-.023.104-.038a.295.295 0 0 1 .106-.032c.024 0 .047.003.07.005a.164.164 0 0 0 .07-.005.127.127 0 0 0 .042-.027.28.28 0 0 0 .033-.038c.02-.027.038-.056.066-.075a.173.173 0 0 1 .059-.025.456.456 0 0 1 .063-.01.265.265 0 0 0 .123-.035.261.261 0 0 0 .07-.088.257.257 0 0 1 .07-.087c.022-.015.047-.023.07-.035a.34.34 0 0 0 .113-.115c.03-.045.058-.093.097-.13a.407.407 0 0 1 .105-.07c.024-.012.049-.022.07-.039a.106.106 0 0 0 .025-.029.07.07 0 0 0 .01-.037v-.035a.04.04 0 0 1 .02-.022.057.057 0 0 1 .028-.007h.029a.136.136 0 0 0 .029-.006.062.062 0 0 0 .026-.02.077.077 0 0 0 .013-.03.164.164 0 0 0 0-.065c-.004-.022-.01-.043-.013-.065a.119.119 0 0 1 .009-.065.082.082 0 0 1 .035-.035.303.303 0 0 0 .035-.105.465.465 0 0 0-.01-.153c-.01-.05-.025-.1-.036-.15a.485.485 0 0 1-.013-.153.237.237 0 0 1 .06-.14c.014-.016.032-.03.046-.046a.102.102 0 0 0 .018-.027.059.059 0 0 0 .005-.032.094.094 0 0 0-.01-.028l-.01-.028a.046.046 0 0 1-.001-.03.032.032 0 0 1 .008-.012.02.02 0 0 1 .013-.007.057.057 0 0 1 .017 0c.006.001.012.002.018 0a.022.022 0 0 0 .008-.005.022.022 0 0 0 .005-.008.033.033 0 0 0 0-.02c-.001-.013-.01-.024-.014-.036-.007-.017-.01-.036-.007-.054a.126.126 0 0 1 .017-.051.162.162 0 0 1 .085-.067.258.258 0 0 1 .107-.013.643.643 0 0 1 .108.02c.07.018.143.04.215.027a.187.187 0 0 0 .098-.046.132.132 0 0 0 .043-.097.13.13 0 0 0-.025-.07.174.174 0 0 0-.056-.05.377.377 0 0 0-.147-.039c-.05-.005-.102-.009-.15-.025a.214.214 0 0 1-.066-.036.152.152 0 0 1-.046-.06.087.087 0 0 1-.008-.035.067.067 0 0 1 .036-.063.147.147 0 0 1 .037-.014c.026-.007.053-.012.075-.028a.143.143 0 0 0 .039-.05c.01-.018.019-.038.03-.055.03-.04.076-.066.106-.105a.237.237 0 0 0 .044-.12c.005-.043.002-.086 0-.129a.553.553 0 0 1 .005-.128.21.21 0 0 1 .056-.114c.03-.029.072-.045.105-.07a.266.266 0 0 0 .078-.094.376.376 0 0 0 .035-.117c.011-.08 0-.163-.007-.244-.034-.316-.052-.64.035-.946.057-.2.157-.39.175-.596.016-.187-.036-.377 0-.56.037-.19.165-.35.204-.54a.403.403 0 0 0-.034-.28.267.267 0 0 0-.1-.1.219.219 0 0 0-.14-.026l-.018.003a.032.032 0 0 1-.03-.016.04.04 0 0 1-.006-.019c0-.012.004-.025.01-.036l.014-.036a.118.118 0 0 0 .002-.019.048.048 0 0 0-.006-.018.038.038 0 0 0-.015-.013.121.121 0 0 0-.019-.007c-.012-.004-.026-.007-.037-.014a.057.057 0 0 1-.017-.022.132.132 0 0 1-.008-.027c-.003-.02-.004-.038-.01-.056a.13.13 0 0 0-.058-.068c-.026-.016-.054-.026-.082-.037-.213-.09-.384-.26-.596-.35-.058-.026-.118-.045-.175-.071-.122-.057-.226-.146-.335-.225a.736.736 0 0 0-.366-.16c-.036-.003-.072-.001-.108-.004a.212.212 0 0 1-.102-.032c-.018-.012-.032-.027-.048-.041a.109.109 0 0 0-.057-.029c-.018-.002-.035.003-.053.006-.01.002-.018.002-.027.002a.052.052 0 0 1-.025-.008.062.062 0 0 1-.023-.032c-.005-.012-.007-.025-.012-.038a.141.141 0 0 0-.041-.058.188.188 0 0 0-.062-.035.345.345 0 0 0-.142-.012c-.036.003-.07.008-.106.01a.29.29 0 0 1-.105-.01.377.377 0 0 1-.142-.1c-.042-.042-.084-.086-.138-.11-.039-.017-.082-.023-.124-.03a.324.324 0 0 1-.121-.04c-.025-.016-.046-.037-.067-.057a.207.207 0 0 0-.073-.048.214.214 0 0 0-.088-.004c-.029.003-.058.008-.087.004a.262.262 0 0 1-.11-.044c-.033-.021-.065-.045-.1-.061a.543.543 0 0 0-.175-.04c-.06-.006-.12-.01-.176-.03a.685.685 0 0 1-.176-.104c-.055-.04-.11-.082-.174-.107-.03-.011-.06-.018-.09-.028a.273.273 0 0 1-.086-.042c-.02-.015-.035-.035-.051-.054a.26.26 0 0 0-.054-.051.208.208 0 0 0-.096-.029c-.034-.003-.068 0-.102-.004a.212.212 0 0 1-.097-.026.126.126 0 0 1-.037-.034.095.095 0 0 1-.018-.047.202.202 0 0 1 .001-.035.106.106 0 0 0-.001-.035.078.078 0 0 0-.03-.042.164.164 0 0 0-.048-.023c-.017-.005-.035-.009-.051-.015a.135.135 0 0 1-.046-.025c-.022-.02-.033-.05-.046-.077a.171.171 0 0 0-.023-.038.079.079 0 0 0-.036-.026.125.125 0 0 0-.053 0c-.017.002-.035.005-.052 0a.084.084 0 0 1-.033-.018.156.156 0 0 1-.025-.028c-.015-.02-.028-.042-.048-.059a.145.145 0 0 0-.057-.028c-.021-.005-.043-.007-.064-.009a.72.72 0 0 1-.065-.008.163.163 0 0 1-.059-.025.214.214 0 0 1-.055-.068c-.014-.025-.029-.052-.05-.072a.184.184 0 0 0-.082-.042c-.03-.008-.061-.01-.092-.012s-.063-.004-.093-.011a.193.193 0 0 1-.083-.04c-.026-.022-.043-.052-.063-.08a.212.212 0 0 0-.033-.037.106.106 0 0 0-.044-.023c-.018-.004-.035-.002-.053 0a.172.172 0 0 1-.053 0 .122.122 0 0 1-.047-.02.419.419 0 0 1-.04-.034.326.326 0 0 0-.04-.032.122.122 0 0 0-.048-.02c-.023-.002-.047.004-.07 0a.1.1 0 0 1-.046-.02.178.178 0 0 1-.036-.035c-.02-.028-.036-.058-.058-.084a.27.27 0 0 0-.093-.067.599.599 0 0 0-.11-.036c-.074-.018-.152-.032-.217-.072-.064-.04-.11-.103-.176-.14a.267.267 0 0 0-.14-.036.514.514 0 0 1-.175-.07c-.05-.03-.093-.07-.14-.105-.2-.144-.454-.189-.666-.315-.136-.082-.251-.195-.385-.28-.155-.098-.33-.157-.49-.246a1.465 1.465 0 0 1-.421-.35z"
    transform="matrix(31.72936 0 0 30.96434 -2223.952 -1326.892)"/>
  <path style="fill:none;stroke:#48362c;stroke-width:.9;stroke-linecap:round;stroke-linejoin:round;stroke-miterlimit:4;stroke-dasharray:none;stroke-opacity:1"
    d="M145.383 110.422a2.9 2.9 0 0 0 .984-2.06c.02-.585-.142-1.169-.414-1.688-.272-.52-.65-.977-1.073-1.383a7.85 7.85 0 0 0-1.784-1.289"
    transform="matrix(31.72936 0 0 30.96434 -2223.952 -1326.892)"/>
  <path style="fill:none;stroke:#48362c;stroke-width:1px;stroke-linecap:butt;stroke-linejoin:miter;stroke-opacity:1"
    d="M138.587 106.975a3.91 3.91 0 0 1 1.883.719 3.993 3.993 0 0 1 1.487 2.155c.267.97.162 2.016-.149 2.973a7.263 7.263 0 0 1-2.13 3.22"
    transform="matrix(31.72936 0 0 30.96434 -2223.952 -1326.892)"/>
  <path style="fill:#48362c;fill-opacity:1;stroke:#000;stroke-width:0;stroke-linecap:butt;stroke-linejoin:miter;stroke-miterlimit:4;stroke-dasharray:none;stroke-opacity:1"
    d="M140.743 107.942a1.556 1.556 0 0 0-.174-.124 1.824 1.824 0 0 0-1.04-.248.38.38 0 0 0-.198.05.212.212 0 0 0-.093.173c0 .068.036.135.093.173.02.014.042.024.063.035.022.01.043.023.06.04.03.029.045.07.075.099.021.02.05.033.074.05a.45.45 0 0 1 .118.13c.032.05.063.1.105.142.03.029.064.052.095.079a.277.277 0 0 1 .079.094c.016.036.02.076.035.112a.12.12 0 0 0 .034.046.071.071 0 0 0 .055.016l.012-.002c.004 0 .009 0 .012.002a.016.016 0 0 1 .006.008.032.032 0 0 1 .001.01.045.045 0 0 1-.008.019c-.003.006-.007.012-.007.02l.001.01a.018.018 0 0 0 .007.007.027.027 0 0 0 .013.002l.012-.002a.04.04 0 0 1 .018.004.04.04 0 0 1 .014.012c.008.01.012.022.013.034.003.025-.002.05.004.074.005.02.018.038.033.053.014.016.03.03.042.046a.28.28 0 0 1 .042.11c.008.038.015.078.032.113a.37.37 0 0 0 .08.104c.032.031.066.06.093.095a.35.35 0 0 1 .075.223l.074.099h.025a.207.207 0 0 1 .129.062c.035.034.06.078.076.124.034.091.04.19.067.284.03.1.084.19.134.281a.88.88 0 0 1 .114.29c.012.081.004.167.025.247.013.05.038.098.05.149.016.072.006.148 0 .223a.93.93 0 0 0-.005.174.393.393 0 0 0 .052.166.24.24 0 0 0 .133.108.19.19 0 0 0 .087.007.163.163 0 0 0 .079-.034.197.197 0 0 0 .05-.064.377.377 0 0 0 .028-.077c.014-.052.023-.107.046-.157.025-.054.067-.098.099-.148.081-.128.095-.288.085-.44-.009-.15-.039-.3-.035-.452.002-.091.016-.182.022-.273a.714.714 0 0 0-.022-.272c-.019-.058-.05-.113-.05-.174 0-.03.007-.06.015-.09s.017-.06.021-.09a.153.153 0 0 0-.013-.09.1.1 0 0 0-.03-.036.082.082 0 0 0-.043-.016h-.024a.087.087 0 0 1-.039-.011.112.112 0 0 1-.03-.027.17.17 0 0 1-.031-.074c-.01-.053-.005-.11-.024-.16a.298.298 0 0 0-.046-.077c-.018-.023-.038-.046-.053-.072-.027-.045-.041-.096-.06-.145a.262.262 0 0 0-.09-.127c-.016-.012-.036-.02-.054-.03a.105.105 0 0 1-.044-.045.092.092 0 0 1-.007-.036.24.24 0 0 1 .004-.038c.004-.024.01-.05.003-.074a.118.118 0 0 0-.021-.04l-.029-.035a.301.301 0 0 1-.05-.173c0-.035.003-.07-.002-.106a.198.198 0 0 0-.015-.05.113.113 0 0 0-.031-.042c-.015-.012-.032-.02-.046-.03a.084.084 0 0 1-.02-.02.046.046 0 0 1-.009-.024v-.013a.04.04 0 0 0 0-.012.03.03 0 0 0-.012-.016.036.036 0 0 0-.02-.006c-.014-.002-.028 0-.042-.002a.078.078 0 0 1-.036-.02.125.125 0 0 1-.024-.032c-.013-.024-.023-.05-.04-.072a.127.127 0 0 0-.098-.05.127.127 0 0 0-.1.05z"
    transform="matrix(31.72936 0 0 30.96434 -2223.952 -1326.892)"/>
  <path style="fill:none;stroke:#48362c;stroke-width:1px;stroke-linecap:round;stroke-linejoin:round;stroke-opacity:1"
    d="M143.368 89.622a5.396 5.396 0 0 1-.806 2.488 6.51 6.51 0 0 1-1.051 1.261c-.667.632-1.439 1.152-2.067 1.822a6.08 6.08 0 0 0-1.051 1.542"
    transform="matrix(31.72936 0 0 30.96434 -2223.952 -1326.892)"/>
  <path style="fill:#48362c;fill-opacity:1;stroke:#000;stroke-width:0;stroke-linecap:butt;stroke-linejoin:miter;stroke-miterlimit:4;stroke-dasharray:none;stroke-opacity:1"
    d="M142.983 90.674a.286.286 0 0 0-.176-.456.197.197 0 0 0-.075 0 .123.123 0 0 0-.065.035.14.14 0 0 0-.033.085.482.482 0 0 0 .006.093.29.29 0 0 1 .001.093.151.151 0 0 1-.014.044.102.102 0 0 1-.03.035c-.021.016-.048.022-.07.036a.148.148 0 0 0-.049.048.243.243 0 0 0-.027.062c-.013.044-.018.09-.03.135a.43.43 0 0 1-.174.245c-.035.024-.074.042-.106.07a.303.303 0 0 0-.08.132c-.017.05-.025.102-.034.153a.742.742 0 0 1-.038.152.27.27 0 0 1-.093.124c-.024.017-.052.028-.078.043a.141.141 0 0 0-.062.062c-.01.022-.01.047-.012.072a.147.147 0 0 1-.006.036.075.075 0 0 1-.017.032.095.095 0 0 1-.05.025c-.018.005-.037.006-.055.01a.256.256 0 0 0-.15.106.528.528 0 0 0-.074.173c-.016.06-.027.123-.044.183a.462.462 0 0 1-.083.169c-.026.031-.058.058-.09.085a.443.443 0 0 0-.085.09c-.034.053-.047.116-.07.175a.149.149 0 0 1-.025.046.082.082 0 0 1-.02.017.058.058 0 0 1-.025.007l-.017-.001-.018.001a.035.035 0 0 0-.016.01.052.052 0 0 0-.01.018.072.072 0 0 0 .003.038l.014.036a.084.084 0 0 1 .008.038.07.07 0 0 1-.008.031.136.136 0 0 1-.018.027c-.014.016-.03.03-.044.047a.147.147 0 0 0 0 .175c.045.048.11.076.176.076.065 0 .13-.028.175-.076.023-.024.041-.053.07-.07a.136.136 0 0 1 .051-.016.387.387 0 0 1 .054-.002l.054-.001a.14.14 0 0 0 .051-.016c.03-.016.049-.044.07-.07a.693.693 0 0 1 .317-.187c.117-.04.24-.069.349-.128a.423.423 0 0 0 .113-.085.237.237 0 0 0 .062-.125c.005-.035 0-.07 0-.105 0-.033.006-.067.023-.095a.105.105 0 0 1 .035-.034.08.08 0 0 1 .047-.012l.018.003c.006 0 .012 0 .017-.003a.027.027 0 0 0 .01-.009.032.032 0 0 0 .006-.013.06.06 0 0 0-.004-.028l-.01-.027a.054.054 0 0 1-.002-.028.05.05 0 0 1 .012-.021.118.118 0 0 1 .02-.016c.007-.004.015-.008.021-.014a.057.057 0 0 0 .017-.019.068.068 0 0 0 .005-.035l-.005-.035a.23.23 0 0 1 .026-.133.559.559 0 0 1 .079-.112c.036-.042.075-.083.107-.129a.373.373 0 0 0 .068-.151c.008-.047.003-.094 0-.14a2.81 2.81 0 0 1 .105-.982zM77.296 99.32a.346.346 0 0 1 0-.198c.021-.07.065-.133.099-.198a.48.48 0 0 0 .062-.218.294.294 0 0 0-.02-.112.234.234 0 0 0-.067-.091c-.037-.031-.083-.048-.124-.075-.044-.029-.08-.068-.124-.099a.293.293 0 0 0-.082-.042.2.2 0 0 0-.091-.007c-.023.003-.046.012-.07.012a.067.067 0 0 1-.034-.01.043.043 0 0 1-.02-.027c-.002-.008 0-.017 0-.025a.124.124 0 0 0-.04-.094.155.155 0 0 0-.096-.04.207.207 0 0 0-.102.022.311.311 0 0 0-.084.062c-.087.089-.133.212-.223.298-.017.016-.036.03-.05.05a.2.2 0 0 0-.032.12c0 .042.007.085.008.127 0 .067-.014.133-.025.198-.03.172-.038.347-.05.52-.011.174-.025.349 0 .52.007.045.017.09.04.128a.17.17 0 0 0 .046.05c.019.012.04.02.063.02h.025a.133.133 0 0 1 .085.039c.023.022.04.05.052.079.024.059.033.123.061.18.034.07.1.126.175.146a.25.25 0 0 0 .221-.047c.041-.033.07-.08.1-.124.037-.054.077-.105.11-.162a.41.41 0 0 0 .063-.184c.002-.042-.005-.083-.01-.125a.285.285 0 0 1 .01-.123.397.397 0 0 1 .04-.073.25.25 0 0 0 .034-.076c.007-.032.003-.066 0-.099a.725.725 0 0 1 .05-.322z"
    transform="matrix(31.72936 0 0 30.96434 -2223.952 -1326.892)"/>
  <path style="fill:#ff9898;fill-opacity:1;stroke:url(#b);stroke-width:9.53397;stroke-linecap:round;stroke-linejoin:round;stroke-miterlimit:4;stroke-dasharray:none;stroke-opacity:1"
    d="M-120.739-101.891a4.763 4.138 0 0 1-.002.117l-4.76-.117z"
    transform="matrix(-31.72587 .4657 -.79323 -30.95474 -2223.952 -1326.892)"/>
  <path style="fill:#ff9898;fill-opacity:1;stroke:url(#c);stroke-width:9.53882;stroke-linecap:round;stroke-linejoin:round;stroke-miterlimit:4;stroke-dasharray:none;stroke-opacity:1"
    d="M-96.002-101.862a4.943 3.991 0 0 1-.002.113l-4.941-.113z"
    transform="matrix(-31.72619 .43288 -.85352 -30.9532 -2223.952 -1326.892)"/>
  <path style="fill:none;stroke:#000;stroke-width:1.00002;stroke-linecap:butt;stroke-linejoin:miter;stroke-miterlimit:4;stroke-dasharray:none;stroke-opacity:1"
    d="M80.863 97.82a29.338 29.338 0 0 0 3.224 8.41c.903 1.575 1.951 3.064 3.083 4.484 2.377 2.982 5.136 5.673 8.268 7.848 2.7 1.875 5.657 3.356 8.69 4.625 2.29.958 4.67 1.808 7.147 1.962 2.036.127 4.082-.224 6.026-.84 2.714-.862 5.236-2.232 7.708-3.645 2.343-1.339 4.673-2.733 6.727-4.484a25.367 25.367 0 0 0 5.466-6.587c1.198-2.07 2.113-4.297 2.802-6.587.347-1.15.638-2.319.841-3.503.128-.743.222-1.491.28-2.243"
    transform="matrix(31.72936 0 0 30.96434 -2223.952 -1326.892)"/>
  <path style="fill:none;stroke:#000;stroke-width:1px;stroke-linecap:round;stroke-linejoin:miter;stroke-opacity:1"
    d="M79.496 90.393c-.77-.38-1.66-.51-2.505-.366a4.135 4.135 0 0 0-2.243 1.173c-.43.44-.761.98-.944 1.567a3.546 3.546 0 0 0-.078 1.824c.198.872.739 1.637 1.391 2.249.71.666 1.575 1.182 2.523 1.401a4.702 4.702 0 0 0 3.223-.42"
    transform="matrix(31.72936 0 0 30.96434 -2223.952 -1326.892)"/>
  <path style="fill:none;stroke:#000;stroke-width:1px;stroke-linecap:round;stroke-linejoin:round;stroke-opacity:1"
    d="M142.592 90.03a5.397 5.397 0 0 1 3.955.709c.56.353 1.058.818 1.396 1.387.338.57.509 1.248.42 1.904-.063.458-.25.895-.514 1.275-.264.38-.603.703-.977.974-.878.635-1.943.978-3.019 1.104a8.474 8.474 0 0 1-2.727-.123"
    transform="matrix(31.72936 0 0 30.96434 -2223.952 -1326.892)"/>
  <path style="fill:none;stroke:#000;stroke-width:1px;stroke-linecap:round;stroke-linejoin:miter;stroke-opacity:1"
    d="M93.357 74.846a19.67 19.67 0 0 1-2.18 5.946 17.077 17.077 0 0 1-2.28 3.171c-.911.993-1.966 1.87-3.17 2.477-1.322.668-2.803 1.006-4.063 1.784a6.69 6.69 0 0 0-2.168 2.17M78.48 65.427a48.397 48.397 0 0 1-.408 6.057 40.928 40.928 0 0 1-.611 3.528 42.665 42.665 0 0 1-1.018 3.735c-.464 1.454-.992 2.902-1.184 4.416-.24 1.886.083 3.887 1.153 5.458.284.417.617.8.99 1.14"
    transform="matrix(31.72936 0 0 30.96434 -2223.952 -1326.892)"/>
  <path style="fill:none;stroke:#000;stroke-width:1px;stroke-linecap:round;stroke-linejoin:round;stroke-opacity:1"
    d="M78.79 98.332a3.859 3.859 0 0 0-.581 2.536 3.859 3.859 0 0 0 1.176 2.32c.775.73 1.825 1.104 2.873 1.288 1.27.223 2.618.206 3.766.793a3.976 3.976 0 0 1 2.081 2.874c.144.914-.042 1.86-.406 2.71-.365.852-.901 1.618-1.477 2.344-1.195 1.506-2.595 2.897-3.369 4.657-.508 1.157-.72 2.466-.454 3.7.149.693.454 1.364.952 1.867a3 3 0 0 0 1.808.865m43.279-65.89c1.882.587 3.423 2.167 3.964 4.063.326 1.143.31 2.382.792 3.468.45 1.015 1.296 1.804 2.21 2.432.916.628 1.916 1.122 2.844 1.73 1.236.81 2.36 1.85 3.031 3.167.421.826.654 1.753.636 2.68-.017.89-.26 1.76-.488 2.621-.228.861-.443 1.741-.404 2.631.047 1.055.448 2.058.855 3.031.407.974.831 1.963.929 3.014.153 1.657-.53 3.296-1.487 4.658-.498.71-1.072 1.363-1.584 2.063-.513.7-.969 1.459-1.19 2.297-.217.82-.2 1.693.002 2.516a6.575 6.575 0 0 0 1.088 2.28c1 1.37 2.426 2.37 3.914 3.181.524.286 1.06.553 1.556.886.495.332.954.737 1.268 1.245a2.99 2.99 0 0 1 .297 2.477 2.917 2.917 0 0 1-1.288 1.586m-13.576-56.585a5.824 5.824 0 0 1 4.063.298 6.18 6.18 0 0 1 2.577 2.279c.533.835.87 1.777 1.288 2.676a14.145 14.145 0 0 0 2.08 3.27c.753.874 1.666 1.667 2.776 1.982.784.222 1.657.183 2.378-.198.397-.21.74-.52.99-.892m-4.505 2.653a12.933 12.933 0 0 1 2.657 3.608c.785 1.583 1.242 3.363 1.08 5.123-.185 2.008-1.158 3.903-1.17 5.92-.007 1.335.411 2.647.404 3.983-.006 1.118-.308 2.213-.64 3.282a56.86 56.86 0 0 1-.648 1.96"
    transform="matrix(31.72936 0 0 30.96434 -2223.952 -1326.892)"/>
  <path style="fill:none;stroke:#000;stroke-width:1px;stroke-linecap:round;stroke-linejoin:miter;stroke-opacity:1"
    d="M83.736 75.538a3.857 3.857 0 0 1 .523-2.518 3.857 3.857 0 0 1 2-1.616c.916-.32 1.926-.28 2.873-.07 1.548.343 2.96 1.117 4.415 1.751 2.286.998 4.705 1.663 7.147 2.173 2.97.62 6.029 1.015 9.04.63 2.294-.293 4.535-1.045 6.516-2.242 1.88-1.136 3.512-2.662 4.835-4.415 1.208-1.599 2.174-3.422 2.523-5.395.146-.83.182-1.679.344-2.506.161-.828.465-1.658 1.057-2.26a2.92 2.92 0 0 1 .77-.56m.677-6.89a20.413 20.413 0 0 0-6.204-5.432c-2.856-1.616-6.091-2.525-9.364-2.767-3.007-.223-6.044.108-8.969.84-3.303.828-6.466 2.161-9.46 3.785-2.134 1.157-4.195 2.47-6.026 4.064a25.52 25.52 0 0 0-5.045 6.026c-.797 1.316-1.49 2.714-2.523 3.854-.918 1.014-2.143 1.814-3.503 1.962a4.083 4.083 0 0 1-1.839-.218 3.717 3.717 0 0 1-1.525-1.043 2.461 2.461 0 0 1-.512-.883c-.1-.329-.106-.691.022-1.01.075-.188.197-.357.35-.49"
    transform="matrix(31.72936 0 0 30.96434 -2223.952 -1326.892)"/>
  <path style="fill:none;stroke:#000;stroke-width:1px;stroke-linecap:round;stroke-linejoin:round;stroke-opacity:1"
    d="M138.463 107.561a4.989 4.989 0 0 1 2.244 2.285c.47.98.603 2.118.373 3.18-.138.64-.402 1.248-.717 1.822-.64 1.17-1.49 2.22-2.04 3.434-.26.574-.452 1.185-.498 1.814-.047.628.057 1.276.358 1.83.175.323.414.61.7.84"
    transform="matrix(31.72936 0 0 30.96434 -2223.952 -1326.892)"/>
  <path style="fill:none;stroke:#000;stroke-width:.934934px;stroke-linecap:round;stroke-linejoin:round;stroke-opacity:1"
    d="M93.466 117.076c.365.495.596 1.088.663 1.7.067.611-.03 1.24-.28 1.803-.27.608-.704 1.124-1.076 1.675-.526.78-.935 1.652-1.095 2.58-.16.927-.06 1.913.378 2.746.256.488.618.91.95 1.348.332.44.642.911.772 1.446.112.468.078.97-.098 1.419"
    transform="matrix(31.72936 0 0 30.96434 -2223.952 -1326.892)"/>
  <path style="fill:none;stroke:#000;stroke-width:1px;stroke-linecap:butt;stroke-linejoin:miter;stroke-opacity:1"
    d="M104.688 123.748a9.795 9.795 0 0 1-.77 4.975 9.75 9.75 0 0 1-1.052 1.822"
    transform="matrix(31.72936 0 0 30.96434 -2223.952 -1326.892)"/>
  <path style="fill:none;stroke:#000;stroke-width:1px;stroke-linecap:round;stroke-linejoin:miter;stroke-opacity:1"
    d="M115.97 125.079a10.177 10.177 0 0 0 1.401 6.657"
    transform="matrix(31.72936 0 0 30.96434 -2223.952 -1326.892)"/>
  <path style="fill:none;stroke:#000;stroke-width:.929839px;stroke-linecap:round;stroke-linejoin:round;stroke-opacity:1"
    d="M102.883 130.51a14.003 14.003 0 0 1-4.705 1.154c-1.548.102-3.12-.052-4.639.256a8.755 8.755 0 0 0-2.85 1.153c-1.798 1.113-3.195 2.76-4.506 4.42-2.406 3.048-4.633 6.232-7.024 9.29-2.387 3.052-4.95 5.998-6.855 9.371a28.709 28.709 0 0 0-1.559 3.21"
    transform="matrix(31.72936 0 0 30.96434 -2223.952 -1326.892)"/>
  <path style="fill:none;stroke:#000;stroke-width:1px;stroke-linecap:round;stroke-linejoin:round;stroke-opacity:1"
    d="M70.745 159.363c-.152.9-.191 1.82-.118 2.73.055.685.176 1.37.444 2.002.542 1.273 1.63 2.22 2.701 3.094 1.933 1.575 3.934 3.068 6.03 4.416a54.059 54.059 0 0 0 10.805 5.35"
    transform="matrix(31.72936 0 0 30.96434 -2223.952 -1326.892)"/>
  <path style="fill:none;stroke:#000;stroke-width:1.05993px;stroke-linecap:round;stroke-linejoin:round;stroke-opacity:1"
    d="M94.539 148.77a57.213 57.213 0 0 1-7.687 8.473c-1.116 1.007-2.272 1.97-3.363 3.004-1 .95-1.945 1.958-2.827 3.019"
    transform="matrix(31.72936 0 0 30.96434 -2223.952 -1326.892)"/>
  <path style="fill:none;stroke:#000;stroke-width:1px;stroke-linecap:round;stroke-linejoin:round;stroke-opacity:1"
    d="M82.604 161.494c1.8 1.826 3.598 3.657 5.39 5.491.548.56 1.094 1.12 1.636 1.685.841.878 1.67 1.767 2.487 2.669a95.182 95.182 0 0 0-1.51 5.617"
    transform="matrix(31.72936 0 0 30.96434 -2223.952 -1326.892)"/>
  <path style="fill:none;stroke:#000;stroke-width:1.00002;stroke-linecap:round;stroke-linejoin:round;stroke-miterlimit:4;stroke-dasharray:none;stroke-opacity:1"
    d="M92.636 151.426c-.149 2.55.161 5.126.91 7.568.417 1.357.968 2.676 1.262 4.064.16.76.243 1.536.28 2.313.087 1.826-.08 3.657-.35 5.465a67.7 67.7 0 0 1-.771 4.134 119.899 119.899 0 0 1-.847 3.672 199.418 199.418 0 0 1-1.528 5.738A657.362 657.362 0 0 1 90 190"
    transform="matrix(31.72936 0 0 30.96434 -2223.952 -1326.892)"/>
  <path style="fill:none;stroke:#000;stroke-width:1px;stroke-linecap:butt;stroke-linejoin:round;stroke-opacity:1"
    d="M123.77 147.375a35.732 35.732 0 0 1 1.59 6.364c.175 1.137.294 2.304.07 3.433-.247 1.237-.89 2.354-1.542 3.434-.58.96-1.182 1.93-1.472 3.013-.317 1.188-.24 2.443-.106 3.666.18 1.634.46 3.257.812 4.864.481 2.191 1.1 4.35 1.73 6.504a646.3 646.3 0 0 0 .993 3.357"
    transform="matrix(31.72936 0 0 30.96434 -2223.952 -1326.892)"/>
  <path style="fill:none;stroke:#000;stroke-width:1px;stroke-linecap:round;stroke-linejoin:round;stroke-opacity:1"
    d="M90 190a57.62 57.62 0 0 0 18.978 3.29c3.006.01 6.016-.218 8.97-.772a40.954 40.954 0 0 0 9.93-3.217M98.942 91.725a6.06 6.06 0 0 1 1.794-2.45 6.06 6.06 0 0 1 2.76-1.264c.775-.137 1.598-.115 2.313.21.838.38 1.46 1.16 1.752 2.032.098.295.162.601.19.911m19.482.583c-.482-1.633-1.83-2.981-3.46-3.466-.933-.278-1.966-.278-2.858.11a3.136 3.136 0 0 0-1.402 1.175c-.253.4-.402.866-.428 1.34"
    transform="matrix(31.72936 0 0 30.96434 -2223.952 -1326.892)"/>
  <path style="fill:none;stroke:#000;stroke-width:.8;stroke-linecap:round;stroke-linejoin:round;stroke-miterlimit:4;stroke-dasharray:none;stroke-opacity:1"
    d="M97.29 91.465a1.32 1.32 0 0 1 1.107-.112c.21.075.4.204.545.372m29.944-.238a1.32 1.32 0 0 0-1.108-.112 1.313 1.313 0 0 0-.545.372"
    transform="matrix(31.72936 0 0 30.96434 -2223.952 -1326.892)"/>
  <path style="opacity:1;fill:#000;fill-opacity:1;stroke:#000;stroke-width:1.1;stroke-linecap:round;stroke-linejoin:round;stroke-miterlimit:4;stroke-dasharray:none;stroke-opacity:1"
    d="M99.061 99.422a.074 3.424 0 0 1 0 .097l-.074-.097z"
    transform="matrix(31.72936 0 0 30.96434 -2223.952 -1326.892)"/>
  <path style="opacity:1;fill:#000;fill-opacity:1;stroke:#000;stroke-width:1.1;stroke-linecap:round;stroke-linejoin:round;stroke-miterlimit:4;stroke-dasharray:none;stroke-opacity:1"
    d="M-103.84 99.367a.074 3.424 0 0 1 0 .097l-.074-.097z"
    transform="matrix(-31.72936 0 0 30.96434 -2223.952 -1326.892)"/>
  <path style="opacity:1;fill:#000;fill-opacity:1;stroke:#000;stroke-width:1.1;stroke-linecap:round;stroke-linejoin:round;stroke-miterlimit:4;stroke-dasharray:none;stroke-opacity:1"
    d="M-101.423-101.995a.074 3.424 0 0 1 0 .097l-.074-.097z"
    transform="matrix(-31.72936 0 0 -30.96434 -2223.952 -1326.892)"/>
  <path style="opacity:1;fill:#000;fill-opacity:1;stroke:#000;stroke-width:1.1;stroke-linecap:round;stroke-linejoin:round;stroke-miterlimit:4;stroke-dasharray:none;stroke-opacity:1"
    d="M-127.356 99.05a.074 3.424 0 0 1 0 .097l-.075-.097z"
    transform="matrix(-31.72936 0 0 30.96434 -2223.952 -1326.892)"/>
  <path style="opacity:1;fill:#000;fill-opacity:1;stroke:#000;stroke-width:1.1;stroke-linecap:round;stroke-linejoin:round;stroke-miterlimit:4;stroke-dasharray:none;stroke-opacity:1"
    d="M122.577 98.995a.074 3.424 0 0 1 0 .097l-.074-.097z"
    transform="matrix(31.72936 0 0 30.96434 -2223.952 -1326.892)"/>
  <path style="opacity:1;fill:#000;fill-opacity:1;stroke:#000;stroke-width:1.1;stroke-linecap:round;stroke-linejoin:round;stroke-miterlimit:4;stroke-dasharray:none;stroke-opacity:1"
    d="M124.995-101.623a.074 3.424 0 0 1 0 .097l-.074-.097z"
    transform="matrix(31.72936 0 0 -30.96434 -2223.952 -1326.892)"/>
  <path style="fill:none;stroke:#000;stroke-width:1.00002;stroke-linecap:round;stroke-linejoin:round;stroke-miterlimit:4;stroke-dasharray:none;stroke-opacity:1"
    d="M117.394 131.591a12.87 12.87 0 0 1 5.255-.395c1.602.213 3.163.732 4.574 1.52 1.251.49 2.51.962 3.774 1.416 1.335.48 2.68.942 4.062 1.262a20.42 20.42 0 0 0 3.47.497 39.897 39.897 0 0 0 2.63.035c.417.006.832.11 1.202.303a781.84 781.84 0 0 1 2.092-6.832c.652-2.097 1.313-4.19 1.916-6.302.338-1.185.657-2.375.958-3.57a16.726 16.726 0 0 1 5.638.687 81.985 81.985 0 0 1-.341 4.464c-.316 3.04-.802 6.06-1.365 9.065-.475 2.533-1.005 5.059-1.733 7.53-.297 1.005-.627 2.002-1.07 2.95-.481 1.027-1.124 2.022-2.075 2.639-.872.564-1.926.764-2.957.891-1.299.16-2.607.226-3.916.242-2.185.028-4.37-.08-6.553-.167-1.416-.057-2.833-.105-4.247-.193a75.72 75.72 0 0 1-4.757-.446"
    transform="matrix(31.72936 0 0 30.96434 -2223.952 -1326.892)"/>
  <path style="fill:none;stroke:#000;stroke-width:1px;stroke-linecap:butt;stroke-linejoin:miter;stroke-opacity:1"
    d="m90.884 176.022 2.102 1.19m-.659-5.312 2.06.968m8.479-42.323a10.433 10.433 0 0 0 4.761 3.462c1.55.55 3.245.722 4.856.396 1.051-.212 2.056-.632 2.973-1.189.69-.419 1.335-.916 1.915-1.478"
    transform="matrix(31.72936 0 0 30.96434 -2223.952 -1326.892)"/>
  <path style="fill:none;stroke:#000;stroke-width:.82591px;stroke-linecap:butt;stroke-linejoin:miter;stroke-opacity:1"
    d="M122.596 54.433a3.716 3.716 0 0 0-.828-1.953 3.716 3.716 0 0 0-1.767-1.174 3.716 3.716 0 0 0-2.121-.008 3.716 3.716 0 0 0-1.775 1.162c-.393.466-.663 1.02-.945 1.561-.283.54-.588 1.082-1.032 1.5a3.433 3.433 0 0 1-1.464.792 4.815 4.815 0 0 1-1.668.124c-1.117-.099-2.18-.505-3.227-.902-.53-.2-1.064-.401-1.624-.48-.56-.08-1.155-.03-1.648.248-.563.317-.949.93-.99 1.574a1.988 1.988 0 0 0 .779 1.69"
    transform="matrix(31.72936 0 0 30.96434 -2223.952 -1326.892)"/>
  <path style="fill:none;stroke:#000;stroke-width:.8;stroke-linecap:round;stroke-linejoin:miter;stroke-miterlimit:4;stroke-dasharray:none;stroke-opacity:1"
    d="M103.707 161.587c1.532.269 3.123.197 4.625-.21.421-.115.835-.255 1.261-.35 1.146-.26 2.344-.19 3.504 0a17.41 17.41 0 0 1 3.013.77"
    transform="matrix(31.72936 0 0 30.96434 -2223.952 -1326.892)"/>
  <path style="fill:none;stroke:#000;stroke-width:1.00002;stroke-linecap:round;stroke-linejoin:miter;stroke-miterlimit:4;stroke-dasharray:none;stroke-opacity:1"
    d="M107.746 106.186c1.884-.096 5.04-.145 7.444-.096 2.403.048 4.051.193 4.97.434.919.242 1.107.58 1.084 1.135-.024.555-.26 1.327-1.107 2.486-.848 1.159-2.309 2.704-3.817 3.5-1.507.797-3.062.845-4.287.676-1.225-.169-2.12-.555-3.298-1.497-1.178-.94-2.638-2.437-3.368-3.572-.73-1.135-.73-1.907-.424-2.366.306-.458.918-.603 2.803-.7z"
    transform="matrix(31.72936 0 0 30.96434 -2223.952 -1326.892)"/>
  <path style="fill:none;stroke:#000;stroke-width:1.00002;stroke-linecap:butt;stroke-linejoin:miter;stroke-miterlimit:4;stroke-dasharray:none;stroke-opacity:1"
    d="M108.877 112.8c.753-.241 1.507-.482 2.567-.603 1.06-.12 2.427-.12 3.369.048.942.17 1.46.507 1.979.845m-10.177-6.517c0 .965 0 1.93.141 2.341.142.41.424.265 2.45.217 2.026-.048 5.795 0 7.798 0 2.002 0 2.237-.048 2.355-.458.118-.41.118-1.183.118-1.956"
    transform="matrix(31.72936 0 0 30.96434 -2223.952 -1326.892)"/>
  <path style="fill:none;stroke:#000;stroke-width:1.00002;stroke-linecap:round;stroke-linejoin:miter;stroke-miterlimit:4;stroke-dasharray:none;stroke-opacity:1"
    d="M147.256 119.029a60.312 60.312 0 0 1-.333-2.188c-.084-.666-.125-1.236-.181-1.784-.056-.549-.127-1.075.007-1.519.133-.443.47-.805 1.13-1.174.659-.37 1.64-.747 2.74-1.037 1.1-.29 2.316-.493 2.958-.304.642.188.709.769.43 1.193-.278.425-.9.694-1.479.906-.578.213-1.111.37-1.632.543-.522.172-1.031.361-1.54.55"
    transform="matrix(31.72936 0 0 30.96434 -2223.952 -1326.892)"/>
  <path style="fill:none;stroke:#000;stroke-width:1.00002;stroke-linecap:butt;stroke-linejoin:miter;stroke-miterlimit:4;stroke-dasharray:none;stroke-opacity:1"
    d="M147.237 112.988c.331-1.17.663-2.342.945-3.474a49.32 49.32 0 0 0 .682-3.146c.167-.922.267-1.673.498-2.185.231-.511.594-.784.97-.888.376-.104.766-.04.907.332.14.371.033 1.05-.044 1.512-.076.463-.12.71-.16 1.123-.039.413-.072.993-.139 1.66-.066.665-.166 1.416-.216 1.928-.05.512-.05.785-.067.99-.016.205-.05.341-.083.478"
    transform="matrix(31.72936 0 0 30.96434 -2223.952 -1326.892)"/>
  <path style="fill:none;stroke:#000;stroke-width:1.00002;stroke-linecap:butt;stroke-linejoin:miter;stroke-miterlimit:4;stroke-dasharray:none;stroke-opacity:1"
    d="M150.747 109.432c.669-.215 1.337-.43 1.788-.503.451-.073.684-.005.809.156.124.16.14.413.306.465.167.05.484-.1.76-.192.275-.093.508-.127.708-.007.2.12.367.392.6.478.233.085.533-.017.733.034.2.051.3.256.366.46.067.206.1.41.1.718 0 .307-.033.716-.166 1.382-.134.666-.367 1.588-.5 2.253-.133.666-.167 1.076-.45 1.639-.283.563-.816 1.28-1.299 1.877-.483.598-.916 1.076-1.183 1.434-.266.359-.366.597-.4.836-.033.24 0 .478.034.717"
    transform="matrix(31.72936 0 0 30.96434 -2223.952 -1326.892)"/>
  <path style="fill:none;stroke:#000;stroke-width:1.00002;stroke-linecap:round;stroke-linejoin:miter;stroke-miterlimit:4;stroke-dasharray:none;stroke-opacity:1"
    d="M150.854 114.42c.5.137 1 .273 1.55.359.549.085 1.149.119 1.698.153.55.034 1.05.068 1.403-.055.354-.124.562-.405.77-.687"
    transform="matrix(31.72936 0 0 30.96434 -2223.952 -1326.892)"/>
  <path style="fill:none;stroke:#000;stroke-width:.0319035px;stroke-linecap:butt;stroke-linejoin:miter;stroke-opacity:1"
    d="M129.653 133.728c1.767.556 3.534 1.11 4.794 1.425 1.26.313 2.014.386 2.91.458.895.073 1.931.145 2.697.23.765.084 1.26.18 1.755.277"
    transform="matrix(31.72936 0 0 30.96434 -2223.952 -1326.892)"/>
  <path style="opacity:1;fill:#530900;fill-opacity:.79322;fill-rule:evenodd;stroke:#76362c;stroke-width:3.8;stroke-linecap:butt;stroke-linejoin:round;stroke-miterlimit:4;stroke-dasharray:none;stroke-opacity:1"
    d="M434.685 110.665c-29.444-17.737-53.025-23.99-99.174-26.302-47.345-2.372-93.008 2.71-135.945 15.126l-16.452 4.758-14.94-13.13c-18.8-16.521-51.271-49.553-63.88-64.983C81.227-2.097 69.707-24.13 69.707-40.023c0-11.933 4.587-17.49 17.214-20.851 8.947-2.382 8.57-2.768 8.596 8.808.036 16.383 1.997 42.522 3.859 51.454 2.19 10.503 6.998 17.731 14.599 21.946l5.623 3.118 23.545-.221c12.95-.122 96.447-.443 185.551-.713 164.509-.5 171.695-.685 184.061-4.752 7.139-2.348 14.647-9.219 17.617-16.12 3.518-8.179 5.722-25.136 5.73-44.083l.007-16.558 3.083.74c6.917 1.658 14.778 5.14 17.682 7.831 3.001 2.782 3.067 3.105 2.459 12.02-1.448 21.223-15.878 48.27-43.875 82.238-17.913 21.734-56.076 58.104-71.322 67.973-2.74 1.773-3.079 1.696-9.45-2.142z"
    transform="translate(1046.761 2044.81)"/>
  <path style="opacity:1;fill:#fff8f7;fill-opacity:1;fill-rule:evenodd;stroke:#fff8f7;stroke-width:4.2604;stroke-linecap:butt;stroke-linejoin:round;stroke-miterlimit:4;stroke-dasharray:none;stroke-opacity:1"
    d="M130.857-9.881c-.638-2.84-2.86-55.756-2.378-56.642.312-.573 61.451-2.87 100.431-3.771 111.105-2.57 234.136.279 271.2 6.281l3.804.616-.688 22.062c-.832 26.722-1.333 29.377-5.83 30.877-2.099.7-66.207 1.415-173.187 1.931-93.42.45-174.951 1.182-181.179 1.625l-11.323.806z"
    transform="translate(1046.761 2044.81)"/>
  <path style="opacity:1;fill:#df5c4b;fill-opacity:.79;fill-rule:evenodd;stroke:#df5c4b;stroke-width:4.2604;stroke-linecap:butt;stroke-linejoin:round;stroke-miterlimit:4;stroke-dasharray:none;stroke-opacity:.788235"
    d="M302.03 153.836c-17.286-1.245-35.887-4.727-50.071-9.373-13.064-4.28-34.952-14.963-33.499-16.35 1.288-1.23 24.993-6.407 38.158-8.332 35.686-5.221 83.257-5.195 112.437.06 13.226 2.383 22.673 5.325 32.513 10.126l8.409 4.102-6.727 3.171c-9.744 4.594-28.641 10.611-41.647 13.262-9.882 2.014-38.383 4.817-44.682 4.395-1.233-.082-7.934-.56-14.89-1.06z"
    transform="translate(1046.761 2044.81)"/>
  <path style="fill:none;stroke:#f4f1f1;stroke-width:31.345;stroke-linecap:butt;stroke-linejoin:miter;stroke-miterlimit:4;stroke-dasharray:none;stroke-opacity:1"
    d="m-291.84 2346.26 74.653-72.823c6.066-5.918 12.204-11.822 19.152-16.676 6.947-4.854 14.712-8.635 22.981-10.492 8.27-1.857 16.984-1.756 25.178.41 8.194 2.164 15.806 6.363 22.213 11.911 12.814 11.095 20.183 27.077 26.355 42.864 3.085 7.894 6.04 15.86 9.865 23.422 3.825 7.563 8.582 14.765 14.88 20.436 8.008 7.211 18.306 11.682 28.954 13.34 10.648 1.658 21.629.58 31.984-2.402 27.953-8.05 50.183-29.17 68.75-51.563 8.484-10.232 16.507-20.932 26.26-29.964 9.753-9.031 21.544-16.425 34.678-18.473 12.186-1.9 24.787.955 35.868 6.372 11.08 5.418 20.786 13.288 29.757 21.753 18.49 17.447 34.26 37.646 53.125 54.687 12.416 11.217 26.36 21.13 42.187 26.563 14.592 5.009 30.357 6.036 45.705 4.463 15.347-1.572 30.337-5.679 44.92-10.713 5.306-1.832 10.579-3.792 15.625-6.25 21.065-10.26 36.991-28.526 51.563-46.875 14.713-18.528 28.84-37.813 46.875-53.125 5.746-4.879 11.904-9.351 18.73-12.549 6.827-3.197 14.37-5.084 21.895-4.639 9.457.56 18.429 4.781 25.919 10.583 7.49 5.802 13.642 13.138 19.393 20.667 11.32 14.822 21.327 30.619 32.813 45.313 7.047 9.016 14.677 17.637 23.437 25 7.173 6.03 15.148 11.221 23.935 14.477 8.787 3.257 18.432 4.513 27.628 2.71 8.796-1.724 16.92-6.191 23.7-12.055 6.781-5.863 12.28-13.09 16.924-20.757 6.24-10.3 11.093-21.844 11.206-33.885.058-6.151-1.12-12.242-2.4-18.26a526.827 526.827 0 0 0-3.235-14.252"
    transform="translate(1046.761 2044.81)"/>
  <path style="opacity:1;fill:#acd0e8;fill-opacity:1;fill-rule:evenodd;stroke:#f4f1f1;stroke-width:34.6317;stroke-linecap:round;stroke-linejoin:round;stroke-miterlimit:4;stroke-dasharray:none;stroke-opacity:1"
    d="M129.827 2596.687c-145.777-4.214-297.201-27.561-434.76-67.03-19.164-5.5-20.417-6.02-20.08-8.351.198-1.367 3.566-14.506 7.485-29.196 12.732-47.726 25.597-99.245 29.157-116.757 4.374-21.518 4.035-20.486 6.153-18.728 1.449 1.202 4.145-.999 18.493-15.095 71.512-70.258 75.207-73.537 87.908-78 8.52-2.995 20.637-2.441 28.326 1.294 7.326 3.56 16.89 13.267 21.814 22.141 2.192 3.95 6.547 13.645 9.679 21.545 4.962 12.517 9.031 21.35 15.78 34.25.954 1.823 2.266 5.36 2.917 7.859 1.503 5.772 5.757 10.037 11.557 11.59 2.5.668 8.788 3.158 13.974 5.532 13.417 6.143 23.06 7.955 38.631 7.258 36.381-1.628 66.2-20.725 104.685-67.042 7.321-8.81 15.04-17.673 17.152-19.693l3.84-3.674.705 3.756c.715 3.812 4.627 8.302 9.356 10.74 3.796 1.955 11.216 1.761 15.4-.403 7.793-4.03 10.52-15.605 5.564-23.623l-2.398-3.88 4.331.765c20.838 3.674 32.51 12.208 66.94 48.944 12.075 12.885 25.416 26.525 29.644 30.31 17.482 15.652 34.478 25.645 53.588 31.508 9.439 2.896 11.066 3.051 32.041 3.061 16.712.01 24.054-.439 30.126-1.832 7.136-1.637 8.533-1.664 12.568-.24 2.497.88 5.74 1.601 7.207 1.601 4.31 0 10.97-4.03 13.364-8.087 1.334-2.261 3.453-4.072 5.31-4.538 5.15-1.293 20.477-9.358 28.1-14.786 12.532-8.925 26.249-23.252 46.216-48.271 36.201-45.361 55.779-60.822 72.003-56.863 12.26 2.992 22.403 12.989 43.92 43.287 16.92 23.827 24.878 34.027 34.08 43.683 5.897 6.189 6.306 6.905 3.935 6.905-3.852 0-10.86 7.432-11.817 12.532-1.791 9.549 5.102 18.063 15.58 19.244 8.87 1 16.382-4.537 17.748-13.079.381-2.383.85-4.334 1.04-4.334.192 0 1.993.958 4.003 2.128 5.53 3.221 16.516 6.602 25.524 7.855 32.36 4.5 62.39-17.215 79.505-57.491 5.826-13.71-5.163-20.483-8.743-35.74l-2.034-8.67 9.26 31.32c19.033 64.374 18.912 92.807 25.394 115.29 5.084 17.638 18.081 53.99 18.081 56.644 0 3.348-8.509 12.72-44.523 28.268-52.36 22.604-113.736 42.01-178.36 56.396-132.61 29.52-285.117 43.752-425.369 39.697zm-271.602-72.896c6.679-3.169 10.007-10.906 7.983-18.556-1.624-6.14-5.738-10.154-11.897-11.607-11.365-2.68-21.14 4.526-21.135 15.58.006 12.021 13.676 19.98 25.05 14.583zm238.68-3.657c9.625-5.869 9.625-21.842 0-27.71-4.844-2.954-14.204-2.923-19.034.061-7.08 4.376-9.34 15.167-4.645 22.193 4.88 7.304 16.323 9.941 23.678 5.456zm94.018-25.02c1.397-.914 3.537-3.25 4.757-5.192 3.163-5.036 2.488-15.047-1.288-19.088-7.56-8.093-18.797-8.115-26.33-.051-3.572 3.824-4.397 12.136-1.756 17.701 3.924 8.269 16.81 11.74 24.617 6.63zm106.126-3.462c5.214-3.892 7.048-7.418 7.048-13.547 0-9.089-6-15.429-15.364-16.236-20.054-1.728-25.194 25.616-5.979 31.808 4.177 1.345 11.093.366 14.295-2.025zm252.038-8.559c7.478-3.866 10.406-12.801 6.839-20.866-3.202-7.238-7.676-9.76-16.438-9.267-7.47.42-11.04 2.667-14.35 9.031-2.125 4.085-1.35 11.985 1.565 15.964 4.547 6.205 15.471 8.713 22.384 5.138zm-108.444-16.07c4.93-3.006 8.364-10.728 7.375-16.581-1.419-8.402-7.674-13.217-17.169-13.217-7.029 0-11.118 2.287-14.34 8.02-4.422 7.868-1.214 18.185 6.898 22.184 5.074 2.5 12.765 2.32 17.236-.406zm-490.684-3.236c1.945-1.187 4.387-3.795 5.426-5.797 3.933-7.576 1.442-17.666-5.426-21.978-5.143-3.23-16.105-2.543-20.18 1.263-11.958 11.173-4.833 28.679 11.67 28.67 2.984 0 6.388-.865 8.51-2.158zm814.384-5.729c3.64-1.762 5.42-3.53 6.953-6.905 2.708-5.963 2.629-9.132-.377-14.993-3.292-6.42-8.335-9.155-15.845-8.594-10.057.752-16.817 8.448-15.573 17.728.782 5.828 3.648 9.596 9.62 12.647 6.062 3.098 9.018 3.12 15.222.117zm-996.337-14.774c5.935-5.685 6.776-15.016 1.967-21.82-3.01-4.257-7.576-6.336-13.92-6.336-17.2 0-22.997 22.208-7.874 30.168 5.897 3.105 15.505 2.13 19.827-2.012zm321.452-32c9.917-5.13 11.627-18.616 3.362-26.534-2.835-2.716-4.43-3.278-10.244-3.605-5.448-.306-7.624.076-10.417 1.83-14.218 8.927-7.69 29.72 9.386 29.895 2.613.027 6.173-.687 7.913-1.587zm118.04-12.071c5.92-3.08 8.339-6.843 8.776-13.655.457-7.135-1.719-11.885-7.044-15.374-4.085-2.677-14.404-2.677-18.489 0-7.142 4.68-9.54 15.34-5.091 22.635 3.992 6.549 15.23 9.837 21.848 6.394zm264.395-57.303c12.608-8.423 8.707-26.803-6.374-30.025-11.737-2.508-22.92 9.513-19.235 20.677 3.386 10.258 16.875 15.182 25.609 9.348zm-674.12-7.015c12.562-10.57 5.969-29.155-10.338-29.143-7.54.01-12.316 2.998-15.205 9.53-5.156 11.656 2.692 22.421 16.389 22.481 4.576.02 6.401-.551 9.155-2.868z"
    transform="translate(1046.761 2044.81)"/>
  <path style="opacity:1;fill:#acd0e8;fill-opacity:1;fill-rule:evenodd;stroke:#f4f1f1;stroke-width:34.6317;stroke-linecap:round;stroke-linejoin:round;stroke-miterlimit:4;stroke-dasharray:none;stroke-opacity:1"
    d="M122.093 2578.562c-122.54-4.054-255.575-22.94-373.993-53.092-26.297-6.696-50.172-13.333-51.174-14.226-.496-.443 1.848-11.188 5.21-23.877 7.55-28.5 22.859-89.94 26.12-104.832l2.42-11.048 14.848-14.246 14.849-14.246 3.531 3.417c6.275 6.071 13.255 8.49 24.523 8.496 8.963.01 10.528-.318 15.861-3.272 18.499-10.246 23.22-34.005 10.157-51.12l-4.415-5.785 6.865-5.713c14.754-12.278 24.244-12.87 34.933-2.182 4.842 4.842 8.797 12 15.118 27.358 4.36 10.595 17.47 39.25 22.38 48.918 4.04 7.955 8.552 11.373 22.953 17.383 26.239 10.951 37.323 13.342 56.132 12.108 40.424-2.653 72.156-21.642 110.986-66.416 5.797-6.684 11.312-12.073 12.255-11.975.943.098 3.704.947 6.135 1.885 2.43.94 7.756 1.729 11.835 1.756 12.95.085 22.468-5.03 29.214-15.696 1.44-2.279 3.03-4.143 3.53-4.143 1.94 0 19.183 16.213 36.016 33.865l17.62 18.475-5.716 1.287c-7.796 1.756-13.507 5.807-18.24 12.936-12.12 18.26-6.163 40.874 13.18 50.024 21.15 10.007 44.024-1.394 48.213-24.03l1.35-7.29 6.076 3.564c24.495 14.37 48.04 18.868 83.97 16.042 18.702-1.471 20.317-1.497 29.83-.469 9.167.991 17.474-1.907 25.088-8.753 2.919-2.624 10.761-7.593 17.428-11.043 12.406-6.419 22.61-13.623 34.186-24.136l6.544-5.943 6.14 3.697c8.02 4.83 13.499 6.223 21.857 5.559 11.98-.951 22.713-8.378 28.176-19.496 3.837-7.81 3.595-20.628-.55-29.07-1.709-3.478-5.054-7.99-7.434-10.028l-4.328-3.705 11.3-11.264c12.195-12.156 19.762-17.831 23.786-17.839 6.567-.012 13.174 6.436 30.085 29.362 6.24 8.46 15.62 21.019 20.848 27.91 5.226 6.893 10.146 13.423 10.933 14.512 1.208 1.672 1.036 2.729-1.105 6.804-1.999 3.803-2.53 6.577-2.512 13.11.038 14.1 6.775 24.595 19.575 30.5 5.905 2.724 8.213 3.176 15.757 3.087 9.806-.115 13.906-1.509 21.429-7.287l4.855-3.73 7.85 2.057c10.744 2.816 28.547 2.96 38.786.314 16.703-4.317 30.63-12.865 43.668-26.801 8.207-8.774 6.303-8.565 10.908-18.898 4.113-9.838-17.616-5.071-14.414 2.543 10.115 42.929 32.664 140.527 46.338 113.5-.993-17.948-3.4-34.176-19.205-42.677-7.647-4.007-.364-5.708-9.036-1.864-8.118 3.598-16.256 12.692-18.613 20.8-4.495 15.461 3.16 32.82 17.632 39.98l4.392 2.172-8.738 4.016c-15.562 7.152-46.873 19.433-69.504 27.262-145.64 50.38-354.448 77.786-544.694 71.493zm-256.16-38.942c12.525-6.347 18.722-17.695 17.829-32.649-.999-16.717-10.96-27.843-27.697-30.938-22.404-4.141-42.098 13.31-40.3 35.712 1.124 13.99 10.453 25.402 24.59 30.08 6.695 2.215 18.939 1.16 25.578-2.205zm236.825-2.601c6.262-2.785 12.334-8.825 15.657-15.572 3.698-7.508 3.706-22.812.017-30.303-3.24-6.578-9.295-12.624-15.674-15.65-7.558-3.586-23.931-3.4-31.285.358-19.43 9.926-24.422 35.86-9.992 51.91 8.053 8.956 16.39 12.41 28.572 11.834 4.617-.218 9.737-1.257 12.705-2.577zm92.156-24.269c6.598-2.182 14.217-9.443 17.579-16.75 3.363-7.311 3.374-21.825.023-29.108-11.715-25.46-49.603-26.243-61.86-1.28-2.735 5.57-3.144 7.656-3.098 15.808.045 7.916.506 10.259 2.94 14.915 8.349 15.978 26.01 22.505 44.416 16.415zm104.222-2.649c7.533-2.257 14.73-8.568 18.886-16.562 3.534-6.797 3.694-7.612 3.276-16.611-.372-8.023-.952-10.377-3.809-15.468-3.957-7.052-11.805-13.464-19.062-15.575-2.795-.813-8.561-1.434-12.815-1.38-12.986.163-23.477 6.87-29.298 18.731-3.79 7.723-3.887 22.056-.196 29.006 8.732 16.439 25.09 23.23 43.018 17.859zm252.821-9.352c16.574-5.06 26.364-22.812 21.974-39.845-4.532-17.583-18.427-27.217-36.784-25.503-13.109 1.225-22.958 8.009-28.229 19.446-3.276 7.11-3.161 20.705.235 27.723 7.552 15.605 25.82 23.363 42.804 18.179zm-108.828-15.563c8.089-2.37 17.49-11.759 20.444-20.415 6-17.588-1.716-35.557-18.31-42.637-2.127-.908-7.406-1.928-11.732-2.267-15.009-1.176-26.905 5.349-33.228 18.226-4.162 8.476-4.357 21.312-.44 28.963 8.275 16.164 25.434 23.354 43.266 18.13zm-487.316-4.522c20.464-9.133 25.333-38.4 9.16-55.054-6.431-6.621-12.42-8.813-24.076-8.813-11.71 0-17.689 2.21-24.556 9.077-11.71 11.71-13.414 29.318-4.145 42.84 4.35 6.345 9.315 10.025 17.455 12.933 7.302 2.609 19.108 2.165 26.162-.983zm-188.446-17.399c11.18-3.365 19.217-11.985 22.265-23.882 3.976-15.52-3.921-32.426-18.231-39.03-7.37-3.4-22.922-3.311-29.976.171-6.99 3.452-13.056 9.66-16.425 16.814-3.766 7.993-3.928 20.1-.37 27.621 7.415 15.679 25.594 23.466 42.737 18.306zm330.312-36.435c6.687-3.271 11.448-8.3 15.228-16.087 3.434-7.072 3.434-20.617 0-27.69-6.143-12.653-15.51-18.797-29.883-19.598-10.742-.6-18.968 2.243-25.837 8.928-18.327 17.834-11.572 47.53 12.793 56.235 8.187 2.925 19.567 2.19 27.699-1.788z"
    transform="translate(1046.761 2044.81)"/>
  <path style="opacity:1;fill:#acd0e8;fill-opacity:1;fill-rule:evenodd;stroke:#f4f1f1;stroke-width:34.6317;stroke-linecap:round;stroke-linejoin:round;stroke-miterlimit:4;stroke-dasharray:none;stroke-opacity:1"
    d="M131.485 2560.911c-72.221-1.983-166.809-11.052-229.944-22.047l-7.315-1.274 2.478-5.16c11.232-23.385 3.117-53.073-18.231-66.699-10.604-6.768-29.767-9.698-41.956-6.416-23.864 6.426-40.309 29.01-38.404 52.741.306 3.81.24 6.928-.145 6.928-1.704 0-44.418-10.424-61.518-15.012l-18.832-5.052 3.275-12.893c1.801-7.092 3.389-13.05 3.528-13.242.14-.192 2.914 1.15 6.166 2.983 34.65 19.531 77.185-4.663 77.472-44.067.107-14.738-4.01-25.363-14.022-36.176-10.194-11.01-26.798-17.084-42.045-15.38l-5.55.62 7.66-6.974 7.659-6.974 4.68 2.07c12.726 5.63 33.856 4.978 45.848-1.414 16.098-8.58 27.708-28.325 27.45-46.684-.058-4.205-2.884-16.341-4.851-20.842-.654-1.495-.32-1.933 1.467-1.933 3.345 0 6.736 5.748 15.68 26.581 4.29 9.991 11.685 26.14 16.434 35.888 7.434 15.257 9.47 18.484 14.634 23.202 5.942 5.428 16.102 11 29.252 16.042l6.813 2.613-5.156 2.949c-10.914 6.243-20.446 19.261-23.947 32.702-7.438 28.557 12.613 57.774 42.822 62.4 27.225 4.17 50.885-11.105 57.694-37.247 4.351-16.705-.308-36.226-11.559-48.432l-4.274-4.637 11.013-1.879c12.505-2.134 24.177-5.807 35.322-11.115l7.65-3.644v3.984c0 5.672 2.882 16.142 6.388 23.209 6.229 12.554 21.156 23.527 36.15 26.572 12.248 2.488 28.584-.527 39.221-7.237 10.95-6.907 19.948-21.317 22.11-35.406 4.114-26.79-13.945-53.14-39.326-57.38-7.648-1.279-7.669-1.334-2.532-6.907l4.814-5.223 13.268-.046c15.008-.052 21.976-1.94 30.962-8.394l5.07-3.64 10.5 10.76 10.502 10.76-4.462 5.07c-13.697 15.56-17.114 37.621-8.63 55.721 4.452 9.499 9.746 15.972 16.98 20.764 3.102 2.055 4.525 3.577 3.598 3.85a565.48 565.48 0 0 1-6.506 1.806c-18.218 4.97-34.178 21.947-36.054 38.349l-.605 5.294-6.28-6.15c-8.06-7.893-15.936-11.717-27.484-13.347-28.91-4.079-53.11 11.342-59.352 37.823-4.325 18.349.475 35.137 13.905 48.629 15.173 15.242 40.525 19.535 60.367 10.222 11.93-5.6 24.212-21.056 26.209-32.983.407-2.43.93-5.029 1.161-5.773.244-.783 2.779.943 6.014 4.095 20.522 19.988 55.363 19.502 74.38-1.039 7.562-8.168 11.444-16.207 13.055-27.035 1.612-10.84-.062-22.731-4.505-31.995-3.272-6.823-11.24-15.907-16.87-19.232-4.129-2.44-3.869-3.13 1.503-3.99 7.723-1.235 16.572-6.205 23.67-13.294 3.689-3.684 7.423-7.852 8.298-9.262l1.591-2.564 5.499 2.357c18.325 7.855 42.883 10.826 73.218 8.859 11.198-.727 23.707-.985 27.798-.574 13.277 1.334 26.068-2.6 37.28-11.465 2.945-2.329 10.754-7.283 17.354-11.01 11.868-6.7 22.002-13.527 29.358-19.778l3.793-3.223 5.555 2.111c8.247 3.134 18.71 3.68 28.546 1.492 20.12-4.476 35.935-20.657 39.522-40.437 2.01-11.078-.547-26.964-5.655-35.142-1.342-2.15-1.082-2.765 2.866-6.808 2.387-2.445 4.919-4.446 5.625-4.446 1.416 0 12.62 14.106 30.715 38.666l11.8 16.017-.85 4.976c-1.403 8.205-.526 21.122 1.917 28.234 8.07 23.497 30.711 36.535 58.248 33.543 5.802-.63 10.043-1.932 15.468-4.747 6.812-3.534 7.916-3.79 12.447-2.879 7.646 1.536 30.624 1.24 38.837-.5 10.966-2.325 23.54-7.746 33.8-14.573 9.824-6.536 23.26-19.005 28.754-26.686 1.864-2.605 3.655-4.306 3.98-3.78.807 1.305 11.302 27.79 12.251 30.916.725 2.386.546 2.478-3.561 1.821-6.567-1.05-19.726 1.43-27.644 5.208-4.285 2.045-9.55 5.854-13.329 9.64-15.695 15.732-19.638 36.867-10.664 57.16 1.535 3.47 2.66 6.439 2.5 6.595-.16.157-5.262 2.26-11.339 4.674-67.497 26.813-141.719 46.545-233.124 61.978-78.799 13.304-159.41 20.882-248.04 23.317-42.15 1.158-43.19 1.158-87.283-.053zm164.623-32.014c16.332-2.547 31.112-13.728 38.807-29.358 3.032-6.16 3.689-8.888 4.073-16.928.86-17.988-3.96-30.881-15.563-41.623-12.195-11.29-26.64-15.7-44.442-13.567-21.554 2.583-39.278 20.066-42.708 42.127-3.814 24.534 9.28 47.523 32.212 56.552 9.275 3.652 17.071 4.442 27.621 2.797zm257.77-10.456c23.373-6.087 38.352-25.055 38.318-48.52-.038-25.785-14.49-44.809-38.782-51.05-12.767-3.28-30.428-.424-41.86 6.77-21.065 13.256-28.784 42.057-17.605 65.693 9.95 21.041 36.724 33.152 59.929 27.107zm-110.603-15.044c16.513-3.455 31.668-17.281 37.315-34.044 3.165-9.397 3.197-23.562.072-32.59-6.125-17.703-19.288-29.451-37.264-33.26-32.827-6.955-60.393 12.434-63.872 44.927-1.61 15.047 3.792 29.7 15.077 40.888 12.728 12.62 30.74 17.83 48.672 14.079z"
    transform="translate(1046.761 2044.81)"/>
  <path style="opacity:1;fill:#acd0e8;fill-opacity:1;fill-rule:evenodd;stroke:#f4f1f1;stroke-width:34.6317;stroke-linecap:round;stroke-linejoin:round;stroke-miterlimit:4;stroke-dasharray:none;stroke-opacity:1"
    d="M12.713 2535.413c-45.766-4.971-85.115-9.953-92.038-11.653-2.2-.54-2.444-1.092-1.804-4.081.407-1.901.806-3.532.887-3.623.08-.093 3.876.569 8.433 1.468 10.26 2.025 24.397 1.285 34.325-1.798 20.25-6.288 36.338-22.19 43.836-43.328 2.51-7.071 2.876-9.863 2.883-21.914.007-12.723-1.033-19.401-4.14-26.587-.575-1.33.455-2.1 4.485-3.352l5.232-1.625 4.038 8.324c4.203 8.664 11.973 18.224 18.875 23.223l4.02 2.913-4.45 4.352c-6.704 6.56-12.665 16.41-15.953 26.363-2.53 7.654-2.952 10.814-2.967 22.184-.017 13.033.482 15.647 5.428 28.45.495 1.281.241 1.885-.752 1.789-.825-.08-5.477-.577-10.338-1.105zm-187.906-105.872c-.092-17.1-1.624-22.853-9.375-35.216-2.446-3.901-4.303-7.192-4.125-7.312.177-.12 2.56-1.05 5.294-2.064 7.29-2.706 19.545-12.463 25.558-20.347l5.25-6.884 6.038 12.408c3.321 6.825 8.067 15.221 10.547 18.658 3.827 5.304 13.723 14.013 19.77 17.397 1.443.807 1.182 1.775-1.775 6.58-4.53 7.364-6.575 12.282-9.02 21.702-1.938 7.463-2.119 7.722-5.157 7.381-1.733-.194-10.11-.44-18.618-.546-11.646-.145-16.56.228-19.887 1.508l-4.42 1.7-.08-14.965z"
    transform="translate(1046.761 2044.81)"/>
  <path style="opacity:1;fill:#acd0e8;fill-opacity:1;fill-rule:evenodd;stroke:#f4f1f1;stroke-width:34.6317;stroke-linecap:round;stroke-linejoin:round;stroke-miterlimit:4;stroke-dasharray:none;stroke-opacity:1"
    d="M-158.307 2415.957c-.352-4.406-1.67-10.957-2.93-14.56l-2.29-6.549 2.41-2.566c3.344-3.559 4.55-3.245 7.466 1.942 1.393 2.48 5.46 7.637 9.039 11.462l6.505 6.954-2.353 5.664-2.354 5.663h-14.854zm263.275 257.629c-140.514-5.202-239.61-19.563-357.973-51.874-28.633-7.817-85.251-24.124-85.887-24.738-.345-.332 5.299-40.858 5.752-41.312.193-.192 11.963 2.882 26.156 6.83 198.175 55.142 398.215 76.082 602.54 63.075 118.185-7.523 239.203-27.223 335.875-54.675 67.512-19.171 105.542-34.98 158.69-64.86 6.989-3.928-5.918-4.683-5.765-4.541.574.53 9.913 30.98 11.767 41.571 1.06 6.057-19.935 3.082-20.298 4.028-.96 2.5 19.866 13.1.375 22.438-43.606 20.892-89.638 45.024-159.132 62.148-102.282 25.203-196.808 37.117-333.113 41.986-34.497 1.232-144.924 1.185-178.987-.076z"
    transform="translate(1046.761 2044.81)"/>
  <path style="opacity:1;fill:#acd0e8;fill-opacity:1;fill-rule:evenodd;stroke:#f4f1f1;stroke-width:34.6317;stroke-linecap:round;stroke-linejoin:round;stroke-miterlimit:4;stroke-dasharray:none;stroke-opacity:1"
    d="M117.122 2655.888c-52.196-1.096-109.322-5.023-160.757-11.05-78.004-9.142-145.419-23.262-240.851-50.447-27.186-7.744-34.322-10.158-34.62-11.71-.952-4.939.199-4.974 16.565-.51 224.707 61.29 457.544 79.336 687.59 53.291 98.852-11.191 195.978-30.34 271.57-53.541 50.39-15.466 86.2-33.155 126.846-54.235 8.145-4.224 14.784-15.492-3.497-11.924-19.224 3.751 4.513 14.433 5.669 20.074 2.487 12.137 22.231-.317 1.935 10.588-66.243 35.592-178.615 74.295-291.485 91.26-105.682 15.884-222.41 21.49-378.965 18.204zm98.756-113.935c8.336-5.7 15.36-11.47 17.328-14.235l2.322-3.26 5.795 5.296c3.187 2.913 8.117 6.529 10.955 8.034 2.838 1.506 5.16 3.111 5.16 3.568 0 .457-4.397.83-9.772.83-5.374 0-15.194.268-21.82.595-10.045.496-11.703.359-9.968-.828zm113.376-8.272c10.753-8.221 20.205-20.923 24.32-32.68 6.139-17.539 2.905-45.948-6.778-59.547-1.274-1.788-2.137-3.407-1.919-3.598.218-.19 4.42-.103 9.337.195l8.94.543-1.05 5.669c-1.524 8.231-.159 20.685 3.399 31.006 15.434 44.778 71.765 61.59 108.658 32.428l5.757-4.55 1.731 2.644c.953 1.455 3.1 4.216 4.773 6.136l3.042 3.49-12.433 2.305c-39.746 7.37-129.838 18.973-146.958 18.928l-4.686-.012zm158.166-121.877c-2.523-3.579-6.814-8.367-9.534-10.64l-4.946-4.135 8.031-2.317c19.864-5.729 35.42-18.422 44.356-36.194 2.058-4.094 4.323-10.237 5.032-13.652l1.289-6.209 4.28 5.919c4.28 5.915 4.282 5.924 4.333 16.967.06 12.758 2.138 22.811 6.534 31.607l3.096 6.196-11.158.646c-16.554.957-31.879 6.277-42.2 14.648l-4.524 3.67zm121.1 72.724c.447-2.014.784-9.379.748-16.367-.071-13.6-1.746-21.43-6.66-31.128-1.466-2.892-2.665-5.524-2.665-5.848 0-.324 5.096-.595 11.325-.602 11.454-.013 18.743-1.368 26.792-4.979 3.71-1.665 7.167-1.952 21.545-1.79 9.419.107 20.007-.232 23.528-.753 5.197-.769 6.295-.667 5.83.543-2.778 7.241-3.336 23.654-1.158 34.068.659 3.149.418 3.427-4.638 5.369-11.61 4.459-46.91 16.532-58.917 20.151a15321.21 15321.21 0 0 0-14.626 4.413c-1.657.504-1.808.083-1.105-3.077z"
    transform="translate(1046.761 2044.81)"/>
  <path style="opacity:1;fill:#acd0e8;fill-opacity:1;fill-rule:evenodd;stroke:#f4f1f1;stroke-width:34.6317;stroke-linecap:round;stroke-linejoin:round;stroke-miterlimit:4;stroke-dasharray:none;stroke-opacity:1"
    d="M626.46 2458.983c0-2.7-.311-6.462-.691-8.361-.606-3.03-.393-3.453 1.739-3.453 1.336 0 6.132-1.243 10.657-2.762 6.603-2.217 10.42-2.762 19.32-2.762h11.092l-.343 3.998-.343 3.998-18.23 6.34c-10.026 3.486-19.348 6.692-20.716 7.124-2.322.734-2.486.464-2.486-4.122z"
    transform="translate(1046.761 2044.81)"/>
  <path style="opacity:1;fill:#acd0e8;fill-opacity:1;fill-rule:evenodd;stroke:#f4f1f1;stroke-width:31.345;stroke-linecap:round;stroke-linejoin:round;stroke-miterlimit:4;stroke-dasharray:none;stroke-opacity:1"
    d="M169.043 2358.864a25.412 22.097 0 0 1-.01.625l-25.402-.625zm8.839 188.93a22.097 20.992 0 0 1-.01.594l-22.088-.594zM32.04 2524.592a27.621 26.517 0 0 1-.01.75l-27.61-.75zm363.498 1.105a23.202 24.307 0 0 1-.01.687l-23.192-.687zm-571.21-19.335a31.488 19.335 0 0 1-.012.547l-31.476-.547z"
    transform="translate(1046.761 2044.81)"/>
  <path style="fill:none;stroke:#000;stroke-width:31.345;stroke-linecap:butt;stroke-linejoin:miter;stroke-miterlimit:4;stroke-dasharray:none;stroke-opacity:1"
    d="M-199.964 710.467c17.284 49.273 34.567 98.544 49.925 151.374 15.358 52.83 28.79 109.214 34.056 167.901 5.267 58.687 2.368 119.673-3.64 161.18-6.007 41.508-15.122 63.534-28.135 86.249-13.013 22.714-29.92 46.113-49.312 67.45-19.392 21.335-41.266 40.606-62.984 55.19-21.717 14.583-43.275 24.478-54.226 31.129-10.951 6.65-11.293 10.054-11.635 13.457"
    transform="translate(1046.761 2044.81)"/>
  <path style="fill:none;stroke:#000;stroke-width:31.345;stroke-linecap:round;stroke-linejoin:miter;stroke-miterlimit:4;stroke-dasharray:none;stroke-opacity:1"
    d="M-120.502 710.329c14.468 33.939 28.935 67.876 42.7 115.168 13.764 47.292 26.825 107.933 36.457 164.269 9.63 56.336 15.831 108.36 18.167 145.441 2.336 37.081.808 59.217-.72 81.352"
    transform="translate(1046.761 2044.81)"/>
  <path style="fill:none;stroke:#000;stroke-width:31.345;stroke-linecap:butt;stroke-linejoin:miter;stroke-miterlimit:4;stroke-dasharray:none;stroke-opacity:1"
    d="M475.39 707.065c14.989 36.876 29.976 73.75 42.707 117.105 12.73 43.354 23.203 93.187 32.14 138.716 8.936 45.529 16.335 86.752 19.805 121.704 3.47 34.952 3.01 63.63 2.55 92.307m-44.579-477.644c21.647 44.274 43.292 88.545 60.19 142.401 16.897 53.856 29.045 117.292 38.566 170.466 9.521 53.175 16.415 96.084 20.888 124.15 4.473 28.065 6.526 41.285 8.578 54.505"
    transform="translate(1046.761 2044.81)"/>
  <path style="fill:none;stroke:#000;stroke-width:31.345;stroke-linecap:butt;stroke-linejoin:miter;stroke-miterlimit:4;stroke-dasharray:none;stroke-opacity:1"
    d="M-12.961 1179.791c40.26-3.217 80.52-6.434 123.43-7.522 42.91-1.088 88.47-.046 122.824.482 34.354.529 57.5.544 83.368-.023 25.866-.567 54.451-1.716 90.92-2.773 36.468-1.057 80.817-2.022 111.448-3.561 30.631-1.54 47.543-3.654 64.455-5.768"
    transform="translate(1046.761 2044.81)"/>
  <path style="fill:none;stroke:#000;stroke-width:30.5939;stroke-linecap:round;stroke-linejoin:miter;stroke-miterlimit:4;stroke-dasharray:none;stroke-opacity:1"
    d="M-268.138 1914.871c-2.458 92.843-4.917 185.683-11.719 265.18-6.802 79.495-17.947 145.64-27.623 193.3-9.676 47.66-17.882 76.832-24.809 103.952-6.927 27.12-12.575 52.185-18.223 77.252l-7.03 54.39c86.64 27.263 173.28 54.527 284.248 69.008 110.967 14.482 246.253 16.182 354.137 11.212 107.885-4.97 188.362-16.609 260.32-33.262 71.957-16.654 135.39-38.321 177.438-56.048 42.048-17.727 62.707-31.513 83.366-45.299-.16-7.959-.322-15.916-5.942-43.427-5.62-27.51-16.7-74.57-30.527-121.436-13.826-46.865-30.397-93.531-46.968-140.2"
    transform="translate(1046.761 2044.81)"/>
  <path style="opacity:1;fill:#acd0e8;fill-opacity:1;fill-rule:evenodd;stroke:#fff;stroke-width:31.345;stroke-linecap:round;stroke-linejoin:round;stroke-miterlimit:4;stroke-dasharray:none;stroke-opacity:1"
    d="M58.188 1395.656a1.563 17.969 0 0 1-.001.508l-1.562-.508zm23.839-103.722a1.563 17.969 0 0 1 0 .508l-1.562-.508zm89.063 110.937a1.563 17.969 0 0 1-.001.508l-1.562-.508zm232.812 9.375a1.563 17.969 0 0 1 0 .508l-1.562-.508zm-128.125-50a1.563 17.969 0 0 1 0 .508l-1.562-.508zm-6.25 121.875a1.563 17.969 0 0 1 0 .508l-1.562-.508zm165.625-175a1.563 17.969 0 0 1 0 .508l-1.562-.508z"
    transform="translate(1046.761 2044.81)"/>
  <path style="opacity:1;fill:#acd0e8;fill-opacity:1;fill-rule:evenodd;stroke:#fff;stroke-width:31.345;stroke-linecap:round;stroke-linejoin:round;stroke-miterlimit:4;stroke-dasharray:none;stroke-opacity:1"
    d="M182.027-1237.754a1.563 17.969 0 0 1 0 .508l-1.562-.508z"
    transform="matrix(1 0 0 -1 1046.761 2044.81)"/>
  <path style="opacity:1;fill:#acd0e8;fill-opacity:1;fill-rule:evenodd;stroke:#fff;stroke-width:31.345;stroke-linecap:round;stroke-linejoin:round;stroke-miterlimit:4;stroke-dasharray:none;stroke-opacity:1"
    d="M347.652 1237.246a1.563 17.969 0 0 1 0 .508l-1.562-.508zm193.75 156.25a1.563 17.969 0 0 1 0 .508l-1.562-.508zm12.5-156.25a1.563 17.969 0 0 1 0 .508l-1.562-.508zm43.75 262.5a1.563 17.969 0 0 1 0 .508l-1.562-.508zm-171.875 3.125a1.563 17.969 0 0 1 0 .508l-1.562-.508zm100 103.125a1.563 17.969 0 0 1 0 .508l-1.562-.508zm-406.25-50a1.563 17.969 0 0 1 0 .508l-1.562-.508zM.777 1484.121a1.563 17.969 0 0 1 0 .508l-1.562-.508zm-40.625-184.375a1.563 17.969 0 0 1 0 .508l-1.562-.508z"
    transform="translate(1046.761 2044.81)"/>
  <path style="opacity:1;fill:#acd0e8;fill-opacity:1;fill-rule:evenodd;stroke:#fff;stroke-width:31.345;stroke-linecap:round;stroke-linejoin:round;stroke-miterlimit:4;stroke-dasharray:none;stroke-opacity:1"
    d="M-158.598-1472.129a1.563 17.969 0 0 1 0 .508l-1.562-.508z"
    transform="matrix(1 0 0 -1 1046.761 2044.81)"/>
  <path style="opacity:1;fill:#acd0e8;fill-opacity:1;fill-rule:evenodd;stroke:#fff;stroke-width:31.345;stroke-linecap:round;stroke-linejoin:round;stroke-miterlimit:4;stroke-dasharray:none;stroke-opacity:1"
    d="M-108.598 1593.496a1.563 17.969 0 0 1 0 .508l-1.562-.508zm-71.875 103.125a1.563 17.969 0 0 1 0 .508l-1.562-.508zm193.75 84.375a1.563 17.969 0 0 1 0 .508l-1.562-.508zm121.875 28.125a1.563 17.969 0 0 1 0 .508l-1.562-.508zm109.375 21.875a1.563 17.969 0 0 1 0 .508l-1.562-.508zm-362.5-6.25a1.563 17.969 0 0 1 0 .508l-1.562-.508zm71.875 84.375a1.563 17.969 0 0 1 0 .508l-1.562-.508zm128.125-15.625a1.563 17.969 0 0 1 0 .508l-1.562-.508zm65.625 100a1.563 17.969 0 0 1 0 .508l-1.562-.508zm-281.25 12.5a1.563 17.969 0 0 1 0 .508l-1.562-.508zm-68.75 106.25a1.563 17.969 0 0 1 0 .508l-1.562-.508zm137.5 0a1.563 17.969 0 0 1 0 .508l-1.562-.508zm100-90.625a1.563 17.969 0 0 1 0 .508l-1.562-.508zm-234.375-131.25a1.563 17.969 0 0 1 0 .508l-1.562-.508zm300 228.125a1.563 17.969 0 0 1 0 .508l-1.562-.508zm-243.75 87.5a1.563 17.969 0 0 1 0 .508l-1.562-.508zm143.75 12.5a1.563 17.969 0 0 1 0 .508l-1.562-.508zm200 3.125a1.563 17.969 0 0 1 0 .508l-1.562-.508zm128.125 9.375a1.563 17.969 0 0 1 0 .508l-1.562-.508zm150-21.875a1.563 17.969 0 0 1 0 .508l-1.562-.508zm156.25-28.125a1.563 17.969 0 0 1 0 .508l-1.562-.508zm-400-68.75a1.563 17.969 0 0 1 0 .508l-1.562-.508zm112.5-81.25a1.563 17.969 0 0 1 0 .508l-1.562-.508zm-106.25-71.875a1.563 17.969 0 0 1 0 .508l-1.562-.508zm168.75-109.375a1.563 17.969 0 0 1 0 .508l-1.562-.508zm-93.75-112.5a1.563 17.969 0 0 1 0 .508l-1.562-.508zm153.125 250a1.563 17.969 0 0 1 0 .508l-1.562-.508zm-93.75 153.125a1.563 17.969 0 0 1 0 .508l-1.562-.508zm168.75-62.5a1.563 17.969 0 0 1 0 .508l-1.562-.508zm0-209.375a1.563 17.969 0 0 1 0 .508l-1.562-.508zm-9.375-140.625a1.563 17.969 0 0 1 0 .508l-1.562-.508zm-115.625-12.5a1.563 17.969 0 0 1 0 .508l-1.562-.508zm-487.5-21.875a1.563 17.969 0 0 1 0 .508l-1.562-.508zm-200-181.25a1.563 17.969 0 0 1 0 .508l-1.562-.508zm140.625-140.625a1.563 17.969 0 0 1 0 .508l-1.562-.508zm750-34.375a1.563 17.969 0 0 1 0 .508l-1.562-.508zm-275 593.75a1.563 17.969 0 0 1 0 .508l-1.562-.508zm-146.875 453.125a1.563 17.969 0 0 1 0 .508l-1.562-.508zm262.5-56.25a1.563 17.969 0 0 1 0 .508l-1.562-.508zm146.875 34.375a1.563 17.969 0 0 1 0 .508l-1.562-.508zm-178.125 90.625a1.563 17.969 0 0 1 0 .508l-1.562-.508zm-143.75 25a1.563 17.969 0 0 1 0 .508l-1.562-.508zm253.125-9.375a1.563 17.969 0 0 1 0 .508l-1.562-.508zm215.625-25a1.563 17.969 0 0 1 0 .508l-1.562-.508zm-646.875-159.375a1.563 17.969 0 0 1 0 .508l-1.562-.508zm-28.125 112.5a1.563 17.969 0 0 1 0 .508l-1.562-.508zm100 84.375a1.563 17.969 0 0 1 0 .508l-1.562-.508zm-262.5-134.375a1.563 17.969 0 0 1 0 .508l-1.562-.508zm-131.25-25a1.563 17.969 0 0 1 0 .508l-1.562-.508zm-31.25 109.375a1.563 17.969 0 0 1 0 .508l-1.562-.508zm184.375 18.75a1.563 17.969 0 0 1 0 .508l-1.562-.508zm-90.625 59.375a1.563 17.969 0 0 1 0 .508l-1.562-.508zm237.5-3.125a1.563 17.969 0 0 1 0 .508l-1.562-.508zm118.75-828.125a1.563 17.969 0 0 1 0 .508l-1.562-.508zm-140.625 28.125a1.563 17.969 0 0 1 0 .508l-1.562-.508zm265.625-143.75a1.563 17.969 0 0 1 0 .508l-1.562-.508zm253.125 718.75a1.563 17.969 0 0 1 0 .508l-1.562-.508zm6.25-296.875a1.563 17.969 0 0 1 0 .508l-1.562-.508zm-234.375 384.375a1.563 17.969 0 0 1 0 .508l-1.562-.508zm-121.875-71.875a1.563 17.969 0 0 1 0 .508l-1.562-.508zM-27.95 2560.799a1.563 17.969 0 0 1 0 .508l-1.562-.508zm-226.494-8.839a1.563 17.969 0 0 1 0 .508l-1.563-.508zm397.747 34.25a1.563 17.969 0 0 1 0 .508l-1.562-.508zm178.987 24.307a1.563 17.969 0 0 1 0 .508l-1.563-.508zm47.508-74.025a1.563 17.969 0 0 1 0 .508l-1.562-.508zm106.066 56.348a1.563 17.969 0 0 1 0 .507l-1.562-.508zm137.002-53.034a1.563 17.969 0 0 1 0 .508l-1.562-.508zm32.041-93.912a1.563 17.969 0 0 1 0 .508l-1.562-.508zM734.4 2549.75a1.563 17.969 0 0 1 0 .508l-1.562-.508zm-43.42-286.134a1.563 17.969 0 0 1-.001.508l-1.562-.508z"
    transform="translate(1046.761 2044.81)"/>
  <g transform="translate(1046.761 2044.81)"/>
</svg>
